/* XPM */
static char * collectible_xpm[] = {
"64 64 698 2",
"  	c #708090",
". 	c #8090A0",
"+ 	c #506070",
"@ 	c #607080",
"# 	c #4B5D43",
"$ 	c #4A5C42",
"% 	c #475B40",
"& 	c #46563C",
"* 	c #47563F",
"= 	c #4D6146",
"- 	c #495841",
"; 	c #4E6344",
"> 	c #4E6747",
", 	c #C3DFB6",
"' 	c #C0DDAF",
") 	c #BAD6AD",
"! 	c #C3DCB2",
"~ 	c #7F9972",
"{ 	c #87A279",
"] 	c #4A623E",
"^ 	c #466140",
"/ 	c #C2DFB1",
"( 	c #A1C796",
"_ 	c #9FC596",
": 	c #9FC795",
"< 	c #A1CB9B",
"[ 	c #86A279",
"} 	c #8AA97D",
"| 	c #496441",
"1 	c #4A6844",
"2 	c #BDDAAE",
"3 	c #9EC495",
"4 	c #9DC495",
"5 	c #9FC697",
"6 	c #A3C89C",
"7 	c #88A37A",
"8 	c #88A77D",
"9 	c #4C6F45",
"0 	c #354C32",
"a 	c #9BC192",
"b 	c #9BC293",
"c 	c #9CC396",
"d 	c #9EC294",
"e 	c #A4C89C",
"f 	c #88A47E",
"g 	c #314B2E",
"h 	c #1F3831",
"i 	c #0C271E",
"j 	c #18322B",
"k 	c #0E2922",
"l 	c #0D271C",
"m 	c #0F2F24",
"n 	c #0E2C22",
"o 	c #102E22",
"p 	c #143228",
"q 	c #15362D",
"r 	c #152C26",
"s 	c #122C1F",
"t 	c #86AA9F",
"u 	c #97B5AC",
"v 	c #7EA69A",
"w 	c #BDE9DA",
"x 	c #C1EAD8",
"y 	c #AEE1CE",
"z 	c #B3EDD5",
"A 	c #83B194",
"B 	c #4F7965",
"C 	c #76A295",
"D 	c #78AB9C",
"E 	c #7EB8A3",
"F 	c #A3CEBB",
"G 	c #4A705D",
"H 	c #79A884",
"I 	c #87B296",
"J 	c #82AF90",
"K 	c #81B090",
"L 	c #84B095",
"M 	c #86B396",
"N 	c #4E7864",
"O 	c #ADD4C2",
"P 	c #74A69A",
"Q 	c #1A412E",
"R 	c #19372D",
"S 	c #1B392F",
"T 	c #1D3E33",
"U 	c #1B3B2E",
"V 	c #1A3A2D",
"W 	c #1A3A2F",
"X 	c #214237",
"Y 	c #1A3B30",
"Z 	c #1C372E",
"` 	c #1D4230",
" .	c #284A3A",
"..	c #4D7761",
"+.	c #84B28D",
"@.	c #80AF8B",
"#.	c #80AD8C",
"$.	c #86B193",
"%.	c #86B490",
"&.	c #739F7B",
"*.	c #527861",
"=.	c #183932",
"-.	c #315A48",
";.	c #446957",
">.	c #7FAB8A",
",.	c #7BAF8B",
"'.	c #83B093",
").	c #84B08F",
"!.	c #78A783",
"~.	c #769D7E",
"{.	c #4D7763",
"].	c #16352F",
"^.	c #2B5541",
"/.	c #9EC0AF",
"(.	c #A7C7B8",
"_.	c #D5E6E0",
":.	c #AEC4B8",
"<.	c #A0BEB2",
"[.	c #A4C0B1",
"}.	c #B1C9BC",
"|.	c #A1C1B4",
"1.	c #14382C",
"2.	c #254E3C",
"3.	c #A7C1B4",
"4.	c #A3C2B3",
"5.	c #D0E3DD",
"6.	c #A1C3B3",
"7.	c #A5C3B7",
"8.	c #A4BEB1",
"9.	c #A0BFB0",
"0.	c #A7C3B4",
"a.	c #15392D",
"b.	c #295240",
"c.	c #A6C2B6",
"d.	c #A7C3B5",
"e.	c #CBE2DA",
"f.	c #A1C0B0",
"g.	c #A8C4B6",
"h.	c #A7C7BA",
"i.	c #A1BFB3",
"j.	c #A0C1B0",
"k.	c #17382D",
"l.	c #264B3A",
"m.	c #A3C3B8",
"n.	c #A4C3B4",
"o.	c #D2E3DD",
"p.	c #9ABCAB",
"q.	c #A4C5B4",
"r.	c #9FBEAF",
"s.	c #A8C2B5",
"t.	c #19392E",
"u.	c #2B523F",
"v.	c #A5BFB2",
"w.	c #9BBAAA",
"x.	c #A3BEAF",
"y.	c #A6C8B8",
"z.	c #A2BEAF",
"A.	c #A9C5B7",
"B.	c #1B3C31",
"C.	c #244B38",
"D.	c #A5C4B4",
"E.	c #A6C2B4",
"F.	c #D3E4DE",
"G.	c #1D3F31",
"H.	c #1E4735",
"I.	c #A4C0B4",
"J.	c #D0E3DF",
"K.	c #A0C0B1",
"L.	c #A6C0B3",
"M.	c #A2C2B5",
"N.	c #9EBDAE",
"O.	c #1C3C2F",
"P.	c #2E5244",
"Q.	c #A5C1B3",
"R.	c #A4C0B2",
"S.	c #A5C1B5",
"T.	c #A5C6B5",
"U.	c #A8C4B5",
"V.	c #113227",
"W.	c #1F4433",
"X.	c #A4C2B6",
"Y.	c #CEE3DC",
"Z.	c #A0BEB4",
"`.	c #A3C3B4",
" +	c #A2C1B1",
".+	c #15362B",
"++	c #274E3B",
"@+	c #CEE1DD",
"#+	c #A2C1B2",
"$+	c #A5C4B5",
"%+	c #A4C6B5",
"&+	c #9CBCAF",
"*+	c #A6C1B2",
"=+	c #1B3D2F",
"-+	c #204436",
";+	c #A6C2B3",
">+	c #A0C0B3",
",+	c #A2C0B4",
"'+	c #A4C3B3",
")+	c #9DBEB3",
"!+	c #AAC2B5",
"~+	c #123426",
"{+	c #1B3F31",
"]+	c #9CBCAD",
"^+	c #A2BEB0",
"/+	c #D4E7E1",
"(+	c #A5C0B7",
"_+	c #173D30",
":+	c #9FBBAD",
"<+	c #D4E5DB",
"[+	c #9BBDAC",
"}+	c #A7C1B6",
"|+	c #86BDA8",
"1+	c #A1BDAE",
"2+	c #7FAB9E",
"3+	c #1A3E32",
"4+	c #92B7A6",
"5+	c #D1E5DC",
"6+	c #CCDFD9",
"7+	c #A7C2B3",
"8+	c #80BAA2",
"9+	c #A5C1B2",
"0+	c #81A192",
"a+	c #153123",
"b+	c #C2ECD8",
"c+	c #9DBDAE",
"d+	c #D2E3DB",
"e+	c #D2E6DD",
"f+	c #A3C3B6",
"g+	c #A9C3B6",
"h+	c #7DB99F",
"i+	c #79A99D",
"j+	c #163525",
"k+	c #133429",
"l+	c #B0DDC9",
"m+	c #A9C1B4",
"n+	c #CEE3DA",
"o+	c #C4D8CF",
"p+	c #A6C0B7",
"q+	c #A7C3B7",
"r+	c #A7C2B9",
"s+	c #7DB89C",
"t+	c #A3C2B0",
"u+	c #71A799",
"v+	c #174030",
"w+	c #1C382C",
"x+	c #BFE6D3",
"y+	c #CDE5D8",
"z+	c #BEF1B9",
"A+	c #BCF3BA",
"B+	c #43EE3E",
"C+	c #47EF42",
"D+	c #41EA37",
"E+	c #46EC42",
"F+	c #44EC3D",
"G+	c #3FE53D",
"H+	c #46F143",
"I+	c #AFF4B1",
"J+	c #A2BCAF",
"K+	c #7AAA9E",
"L+	c #132F23",
"M+	c #1E3D2E",
"N+	c #BAE5D1",
"O+	c #76AC9E",
"P+	c #42F037",
"Q+	c #B8F8A4",
"R+	c #C8F3BB",
"S+	c #CCF6B7",
"T+	c #7FF15B",
"U+	c #80F25C",
"V+	c #83F360",
"W+	c #82F05B",
"X+	c #82F35B",
"Y+	c #82F35D",
"Z+	c #84F25F",
"`+	c #C8F6B5",
" @	c #3DEC35",
".@	c #38F133",
"+@	c #6BA692",
"@@	c #7DAAA3",
"#@	c #1A3C2C",
"$@	c #1F4836",
"%@	c #B5E0CC",
"&@	c #2CEA28",
"*@	c #7FEE63",
"=@	c #CBF9B8",
"-@	c #C4F5B4",
";@	c #83F15C",
">@	c #84F55F",
",@	c #84F158",
"'@	c #85F15D",
")@	c #83EF5B",
"!@	c #86F45F",
"~@	c #81EF5A",
"{@	c #89F564",
"]@	c #B6F69F",
"^@	c #7EF25B",
"/@	c #3CE832",
"(@	c #76AA9D",
"_@	c #173A26",
":@	c #355344",
"<@	c #2AED25",
"[@	c #15BB19",
"}@	c #30E22A",
"|@	c #C8F5BA",
"1@	c #C5F8B5",
"2@	c #7CF359",
"3@	c #7CF35B",
"4@	c #7CF457",
"5@	c #7EF55B",
"6@	c #7EF259",
"7@	c #7AEF53",
"8@	c #80F45B",
"9@	c #7AF755",
"0@	c #47EF38",
"a@	c #3FF139",
"b@	c #18B81A",
"c@	c #26DF1F",
"d@	c #7FAEA8",
"e@	c #1B402F",
"f@	c #29E723",
"g@	c #19BB1A",
"h@	c #1AB31D",
"i@	c #A2E794",
"j@	c #98E08A",
"k@	c #1FBA21",
"l@	c #15BA18",
"m@	c #1EBD23",
"n@	c #18B71C",
"o@	c #16B817",
"p@	c #14B416",
"q@	c #14B215",
"r@	c #15B513",
"s@	c #17B717",
"t@	c #16B417",
"u@	c #1ABA1C",
"v@	c #1BAF19",
"w@	c #20B324",
"x@	c #1DC220",
"y@	c #32D836",
"z@	c #1F4335",
"A@	c #18362A",
"B@	c #1BE11C",
"C@	c #1DB721",
"D@	c #1CB71E",
"E@	c #99DF89",
"F@	c #9ADF8F",
"G@	c #17B219",
"H@	c #1FB81F",
"I@	c #1EB920",
"J@	c #1FBE23",
"K@	c #1BB519",
"L@	c #1EB41D",
"M@	c #1CBA1B",
"N@	c #25B724",
"O@	c #23B620",
"P@	c #20BB21",
"Q@	c #20B921",
"R@	c #8ADB7E",
"S@	c #22BC20",
"T@	c #19B21C",
"U@	c #36DC3A",
"V@	c #25463F",
"W@	c #122A1D",
"X@	c #B8ECC6",
"Y@	c #19BE19",
"Z@	c #1EB41F",
"`@	c #9BE38D",
" #	c #9FE390",
".#	c #9EE392",
"+#	c #1BB91C",
"@#	c #19AF1C",
"##	c #13B017",
"$#	c #1BB61C",
"%#	c #22B620",
"&#	c #1DBB1E",
"*#	c #78EA56",
"=#	c #20B623",
"-#	c #20B61F",
";#	c #8CDB80",
">#	c #1FB120",
",#	c #20C521",
"'#	c #70B19B",
")#	c #1C3629",
"!#	c #96E9A1",
"~#	c #18C219",
"{#	c #1DB620",
"]#	c #96E28A",
"^#	c #A0E094",
"/#	c #20B621",
"(#	c #1FB31F",
"_#	c #20BF24",
":#	c #81F15F",
"<#	c #20B420",
"[#	c #1FB820",
"}#	c #7BED5A",
"|#	c #19AB1C",
"1#	c #1FB91D",
"2#	c #23B721",
"3#	c #24BD24",
"4#	c #89E47B",
"5#	c #17A619",
"6#	c #1EBC1F",
"7#	c #1FBF21",
"8#	c #63B282",
"9#	c #1B4136",
"0#	c #1A3127",
"a#	c #BEE8D0",
"b#	c #1DE31A",
"c#	c #1FB51E",
"d#	c #9DE090",
"e#	c #98DF8F",
"f#	c #8FE383",
"g#	c #29C229",
"h#	c #22B421",
"i#	c #22B823",
"j#	c #1CB21F",
"k#	c #19AF18",
"l#	c #1FBD20",
"m#	c #22B821",
"n#	c #23B924",
"o#	c #22B622",
"p#	c #1EB71E",
"q#	c #8FD982",
"r#	c #24B91F",
"s#	c #29E725",
"t#	c #79ACA3",
"u#	c #162B22",
"v#	c #1E382D",
"w#	c #B3EBC8",
"x#	c #34EC28",
"y#	c #1DBE23",
"z#	c #83D87A",
"A#	c #98DE88",
"B#	c #A0E690",
"C#	c #92E386",
"D#	c #21BC22",
"E#	c #1FB522",
"F#	c #20B51D",
"G#	c #23B522",
"H#	c #21B521",
"I#	c #77EF52",
"J#	c #1EB91F",
"K#	c #23B723",
"L#	c #1FB520",
"M#	c #90D980",
"N#	c #88DD7F",
"O#	c #20B71E",
"P#	c #29E121",
"Q#	c #78A69C",
"R#	c #234739",
"S#	c #B4ECC9",
"T#	c #1CE51A",
"U#	c #21C121",
"V#	c #96DE8A",
"W#	c #94DC8A",
"X#	c #8CDB82",
"Y#	c #21BA22",
"Z#	c #21B720",
"`#	c #21BA24",
" $	c #1DB31E",
".$	c #20B221",
"+$	c #20B422",
"@$	c #94DA82",
"#$	c #22BE1D",
"$$	c #21B41E",
"%$	c #26E122",
"&$	c #1E4234",
"*$	c #3E564B",
"=$	c #2CEC1F",
"-$	c #20BE21",
";$	c #1CAB1E",
">$	c #9AE28E",
",$	c #97E18A",
"'$	c #22E51F",
")$	c #21B81F",
"!$	c #23BC23",
"~$	c #21B51F",
"{$	c #21B722",
"]$	c #22BB23",
"^$	c #17AB17",
"/$	c #84F462",
"($	c #26BD24",
"_$	c #7AD76F",
":$	c #1FB61D",
"<$	c #1EBF21",
"[$	c #28DC21",
"}$	c #75A097",
"|$	c #1D402C",
"1$	c #2AE824",
"2$	c #16B71C",
"3$	c #1DBD1F",
"4$	c #A1E696",
"5$	c #95DF88",
"6$	c #98E28B",
"7$	c #97DF89",
"8$	c #1CB51D",
"9$	c #26BA28",
"0$	c #23BA21",
"a$	c #1DB11F",
"b$	c #7CEF60",
"c$	c #1EB220",
"d$	c #1EB01F",
"e$	c #98DD8A",
"f$	c #28C327",
"g$	c #1BAF1D",
"h$	c #1BA91F",
"i$	c #40D847",
"j$	c #264C37",
"k$	c #2CE92D",
"l$	c #18B21C",
"m$	c #19B31D",
"n$	c #99E18F",
"o$	c #98E08C",
"p$	c #97E08E",
"q$	c #1CAF20",
"r$	c #1BB61D",
"s$	c #18B61B",
"t$	c #1CB71B",
"u$	c #1AB91E",
"v$	c #17B41B",
"w$	c #1FB923",
"x$	c #1DB81E",
"y$	c #17AA1B",
"z$	c #1BB11E",
"A$	c #90D680",
"B$	c #21B523",
"C$	c #1AB01D",
"D$	c #38D93B",
"E$	c #163226",
"F$	c #122C21",
"G$	c #9EEDAC",
"H$	c #1CBE1B",
"I$	c #1CB71D",
"J$	c #1FB822",
"K$	c #8AD882",
"L$	c #97DC8C",
"M$	c #9BDE8F",
"N$	c #1BAE20",
"O$	c #23BE24",
"P$	c #198D22",
"Q$	c #189722",
"R$	c #189321",
"S$	c #15921D",
"T$	c #16931E",
"U$	c #1B9624",
"V$	c #1C9826",
"W$	c #188F19",
"X$	c #82F363",
"Y$	c #16961D",
"Z$	c #1BB41C",
"`$	c #1AB41E",
" %	c #20B223",
".%	c #8CD880",
"+%	c #1DB61D",
"@%	c #1DB11B",
"#%	c #78AF9C",
"$%	c #0F3025",
"%%	c #90E7A0",
"&%	c #1DB61E",
"*%	c #1DB81F",
"=%	c #94DF8C",
"-%	c #99CA89",
";%	c #93D385",
">%	c #13921D",
",%	c #1A9322",
"'%	c #92F972",
")%	c #16931D",
"!%	c #19A020",
"~%	c #1A9C1E",
"{%	c #1C9C21",
"]%	c #1D9A25",
"^%	c #1B9822",
"/%	c #78E85E",
"(%	c #199920",
"_%	c #80F060",
":%	c #1C9E20",
"<%	c #17941E",
"[%	c #1A931F",
"}%	c #1DB320",
"|%	c #8ED883",
"1%	c #1FAE20",
"2%	c #1DBF1C",
"3%	c #74AB96",
"4%	c #133324",
"5%	c #102B22",
"6%	c #B7EBC7",
"7%	c #21D420",
"8%	c #108D18",
"9%	c #209E23",
"0%	c #A0D494",
"a%	c #9FD192",
"b%	c #14991A",
"c%	c #1C9C23",
"d%	c #1E9B23",
"e%	c #1D9A22",
"f%	c #1A9C22",
"g%	c #1FA123",
"h%	c #1EA121",
"i%	c #1B9D21",
"j%	c #1E9E25",
"k%	c #20A226",
"l%	c #199C1A",
"m%	c #7CEC64",
"n%	c #16981A",
"o%	c #18A11F",
"p%	c #1A9F20",
"q%	c #1C9E22",
"r%	c #1D9E20",
"s%	c #1EA024",
"t%	c #219725",
"u%	c #1AA621",
"v%	c #179720",
"w%	c #2AD032",
"x%	c #7EAC9F",
"y%	c #173529",
"z%	c #B2EBC8",
"A%	c #2EDB27",
"B%	c #24D525",
"C%	c #1C9023",
"D%	c #A2D59A",
"E%	c #209C24",
"F%	c #1FA127",
"G%	c #199B21",
"H%	c #1D9F21",
"I%	c #17991B",
"J%	c #1FA125",
"K%	c #20A025",
"L%	c #1D9F25",
"M%	c #1C9921",
"N%	c #1CA121",
"O%	c #1EA022",
"P%	c #1C9E24",
"Q%	c #21A627",
"R%	c #26CF2A",
"S%	c #31DA29",
"T%	c #183428",
"U%	c #18392E",
"V%	c #AEF1C5",
"W%	c #23CE28",
"X%	c #22BF29",
"Y%	c #1FC228",
"Z%	c #1DA326",
"`%	c #1B9D1F",
" &	c #1BA023",
".&	c #1A9C20",
"+&	c #1E9F28",
"@&	c #1CA124",
"#&	c #20A224",
"$&	c #199A1C",
"%&	c #2BD721",
"&&	c #29DB23",
"*&	c #2BD223",
"=&	c #82B2A4",
"-&	c #82ADA3",
";&	c #1B3D2D",
">&	c #1A3B2A",
",&	c #123223",
"'&	c #B8F3CC",
")&	c #BBF3CD",
"!&	c #CCF6DA",
"~&	c #66D074",
"{&	c #2FD12E",
"]&	c #2BC82F",
"^&	c #30CE2F",
"/&	c #2ED02C",
"(&	c #30D030",
"_&	c #2BCC2E",
":&	c #2FCD30",
"<&	c #2ECD2B",
"[&	c #30CF2D",
"}&	c #2FCF2F",
"|&	c #2ACC2B",
"1&	c #2FCF2D",
"2&	c #2ED32F",
"3&	c #31CF30",
"4&	c #71A692",
"5&	c #74A38F",
"6&	c #73A791",
"7&	c #102F20",
"8&	c #132F21",
"9&	c #31483E",
"0&	c #224034",
"a&	c #264135",
"b&	c #214033",
"c&	c #1F3D31",
"d&	c #213D31",
"e&	c #19392A",
"f&	c #173324",
"g&	c #1E3E2F",
"h&	c #18382B",
"i&	c #1C3C2D",
"j&	c #1D3B2F",
"k&	c #214134",
"l&	c #1D3B31",
"m&	c #204033",
"n&	c #224338",
"o&	c #214335",
"                                                                                                          .                   + ",
"      .                                                                 .       .                                             + ",
"                                                                                                                              + ",
"                                                                                  .                   @                       + ",
"                                                        .                                                                     + ",
"                                                  .                                                                   .   .   + ",
"                              .                                                                                               + ",
"                    @                                   # $ % & * = - ;           @                                           + ",
"                                                      > , ' ) , ! ~ { { ]                       .                             + ",
"                                                      ^ / ( _ _ : < [ } |                       @   @                         + ",
"                                              @       1 2 3 _ 4 5 6 7 8 9                                                     + ",
"                                                        0 a b c d e f g               .                       @               + ",
"                                                    h i j k l m n o p q r s                                                   + ",
"                      .                             t u v w x x y z A B C D                                       @           + ",
"                                                    E F G H I J K L M N O P                                       .           + ",
"                                                    Q R S T U V W T X Y Z `           @                                       + ",
"                                                       ...+.@.#.$.%.&.*.=.                                                    + ",
"                                  @     .             -.;.>.,.'.).!.~.{.].                                                    + ",
"                      .                               ^./.(._.:.<.[.}.|.1.                                                    + ",
"                                                      2.3.4.5.6.7.8.9.0.a.                                                    + ",
"      @                                               b.c.d.e.f.g.h.i.j.k.                                                    + ",
"                                                      l.m.n.o.p.c.q.r.s.t.                                                    + ",
"                                                      u.v.0.5.w.x.y.z.A.B.                                                    + ",
"            .                                   .     C.D.E.F.j.s.q.f.0.G.                                                    + ",
"    .                                     .           H.I.E.J.K.L.M.N.L.O.                                          .         + ",
"                    @                                 P.c.Q.J.R.S.T.4.U.V.                                                    + ",
"                                                      W.Q.X.Y.Z.d.`. +v..+                                                @   + ",
"                                                      ++c.R.@+#+$+%+&+*+=+                                                    + ",
"                                                      -+;+>+5.M.,+'+)+!+~+                    @                       .       + ",
"                                                      {+]+^+/+<.(+X.M.L._+                .       @                           + ",
"                                                      ^+:+<+[+d.}+*+|+1+R.2+                                                  + ",
"                                                  3+4+g.5+6+I.#+S.7+$+8+9+0+H.      .   @                                     + ",
"      @         .                               a+b+E.c+d+e+d.s.f+g+L.h+ +Q.i+j+                                              + ",
"                                                k+l+m+d+n+o+p+q+r+c.>+s+t+[.u+v+                                          .   + ",
"            .                                 w+x+<.y+z+A+B+C+D+E+F+G+H+I+;+J+K+L+        @             .         @           + ",
"                                            M+N+O+P+Q+R+S+T+U+V+W+X+Y+Z+`+ @.@+@@@#@                                .         + ",
"              @                             $@%@&@*@=@-@;@>@,@;@'@)@!@~@{@]@^@/@(@_@                                          + ",
"    @                                       :@<@[@}@|@1@2@3@4@4@5@6@7@8@9@0@a@b@c@d@                                          + ",
"                                          e@f@g@h@i@j@k@l@m@n@o@p@q@r@s@t@u@v@w@x@y@z@                            .           + ",
"        .                                 A@B@C@D@E@F@G@H@I@J@K@L@M@N@O@P@Q@R@S@T@U@V@            .                           + ",
"                                        W@X@Y@Z@`@ #.#+#@###$#%#&#*#=#%#%#-#;#H@>#,#'#)#                  .                   + ",
"                                    @   l !#~#{#]#^#/#(#_#:#<#[#}#|#1#2#%#3#4#5#6#7#8#9#                              .       + ",
"                                      0#a#b#c#d#e#f#g#h#/#i#2#2#j#k#l#m#n#o#p#q#r#c#s#t#u#                                    + ",
"                    @             @ v#w#x#y#z#A#B#C#D#-#E#(#Z@F#G#H#I#J#2#K#L#M#N#O#J#P#Q#e@      .               @         . + ",
"                                    R#S#T#U#V#V#W#X#-#K#c#Y#Q@2#o#%#Z#-#`# $.$+$@$#$$$%$t#&$                                  + ",
"                @                   *$=$-$;$>$F@,$'$i#K#)$!$2#~$`#{$[#]$^$/$($o#M#_$:$<$[$}$              .                   + ",
"                      .           |$1$2$3$4$5$6$7$8$2#%#/#%#9$0$Q@o#{$`#a$b$c${$d$e$f$g$h$i$j$                      @         + ",
"                                  #@k$l$m$n$o$p$q$Z#8$r$r$s$t$u$v$w${${#x$y$ $~$z$A$B$C$J#D$E$  .         @                   + ",
"        @                       F$G$H$I$J$K$L$M$N$O$P$Q$R$S$T$U$V$W$X$Y$U$`#Z$`$k@ %.%=#+%@%#%A@                              + ",
"            .                   $%%%&%*%o$=%-%;%>%,%'%)%!%~%{%]%^%/%(%_%:%V$<%U$[%}%|%{#1%2%3%4%                              + ",
"                .               5%6%7%8%9%0%a%b%c%d%e%f%g%h%i%j%k%l%m%n%o%p%q%r%s%~%t%u%v%w%x%y%                              + ",
"                                  4%z%A%B%C%D%q%c%E%F%G%H%r%I%J%K%L%M%s%N%O%j%{%h%P%Q%R%S%2+T%                                + ",
"                                    U%S#V%W%X%Y%L%L%P%Z%q%`% &.&+&P%f%q%@&j%#&$&%&&&*&=&-&;&                                  + ",
"              .                       >&,&'&)&!&~&{&]&^&/&(&_&:&(&<&[&}&|&1&2&3&4&5&6&7&8&                                    + ",
"                                          9&0&a&b&c&d&e&f&g&O.h&i&j&k&l&m&n&V o&                                              + ",
"                    @                                                                             .           @               + ",
"                                      .                                                                                       + ",
"                                                                                        @                                     + ",
"                                  @                                                                                           + ",
"                                                                                                                              + ",
"                                                                  .                                                           + ",
"                                                          @                                                                   + ",
"                                                                                                              @               + ",
"+ + + + + + + + + + + + + + + + + + + + + + + + + + + + + + + + + + + + + + + + + + + + + + + + + + + + + + + + + + + + + + + + "};
