/* XPM */
static char * exit_off_xpm[] = {
"64 64 123 2",
"  	c #708090",
". 	c #8090A0",
"+ 	c #506070",
"@ 	c #607080",
"# 	c #4C4C4C",
"$ 	c #303030",
"% 	c #505050",
"& 	c #333333",
"* 	c #4E4E4E",
"= 	c #313131",
"- 	c #515151",
"; 	c #525252",
"> 	c #4B4B4B",
", 	c #414141",
"' 	c #424242",
") 	c #494949",
"! 	c #323232",
"~ 	c #4A4A4A",
"{ 	c #393939",
"] 	c #353535",
"^ 	c #6B6B6B",
"/ 	c #4F4F4F",
"( 	c #444444",
"_ 	c #454545",
": 	c #4D4D4D",
"< 	c #343434",
"[ 	c #404040",
"} 	c #737373",
"| 	c #767676",
"1 	c #747474",
"2 	c #757575",
"3 	c #2F2F2F",
"4 	c #535353",
"5 	c #3F3F3F",
"6 	c #2B2B2B",
"7 	c #565656",
"8 	c #707070",
"9 	c #727272",
"0 	c #717171",
"a 	c #686868",
"b 	c #696969",
"c 	c #484848",
"d 	c #606060",
"e 	c #777777",
"f 	c #434343",
"g 	c #787878",
"h 	c #5D5D5D",
"i 	c #555555",
"j 	c #3E3E3E",
"k 	c #292929",
"l 	c #282828",
"m 	c #272727",
"n 	c #797979",
"o 	c #545454",
"p 	c #5B5B5B",
"q 	c #5E5E5E",
"r 	c #575757",
"s 	c #666666",
"t 	c #646464",
"u 	c #5F5F5F",
"v 	c #252525",
"w 	c #2A2A2A",
"x 	c #5C5C5C",
"y 	c #474747",
"z 	c #585858",
"A 	c #6F6F6F",
"B 	c #232323",
"C 	c #212121",
"D 	c #171717",
"E 	c #191919",
"F 	c #121212",
"G 	c #111111",
"H 	c #151515",
"I 	c #101010",
"J 	c #262626",
"K 	c #6E6E6E",
"L 	c #3D3D3D",
"M 	c #626262",
"N 	c #242424",
"O 	c #0F0F0F",
"P 	c #0E0E0E",
"Q 	c #131313",
"R 	c #6A6A6A",
"S 	c #3C3C3C",
"T 	c #222222",
"U 	c #6C6C6C",
"V 	c #636363",
"W 	c #6D6D6D",
"X 	c #5A5A5A",
"Y 	c #363636",
"Z 	c #656565",
"` 	c #141414",
" .	c #2D2D2D",
"..	c #595959",
"+.	c #1F1F1F",
"@.	c #202020",
"#.	c #383838",
"$.	c #464646",
"%.	c #2E2E2E",
"&.	c #616161",
"*.	c #181818",
"=.	c #1C1C1C",
"-.	c #1D1D1D",
";.	c #373737",
">.	c #3B3B3B",
",.	c #1E1E1E",
"'.	c #010101",
").	c #1B1B1B",
"!.	c #2C2C2C",
"~.	c #020202",
"{.	c #000000",
"].	c #676767",
"^.	c #050505",
"/.	c #7A7A7A",
"(.	c #060606",
"_.	c #040404",
":.	c #090909",
"<.	c #030303",
"[.	c #1A1A1A",
"}.	c #7C7C7C",
"|.	c #161616",
"1.	c #7F7F7F",
"2.	c #3A3A3A",
"                                                                                                          .                   + ",
"      .                                                                 .       .                                             + ",
"                                                                                                                              + ",
"                                                                                  .                   @                       + ",
"                                                        .                                                                     + ",
"                                                  .                                                                   .   .   + ",
"                              .                                                                                               + ",
"                    @                                   # $ % & * = - & * =       @       ; > , ' )                           + ",
"                                                        # ! # # > ~ ~ { % ] ^ / = !           ' , ( _                         + ",
"                                            - $ & ~ : - / / / * % % % * * ~ < % > & = =         @ , * : [                     + ",
"                                        & ) & - % } | 1 } } 2 2 1 2 1 1 1 1 % # > * < % 3 =         4 * / 5                   + ",
"                                  6 ; 7 % ; 8 2 9 2 : * * : : * * / % / : 2 0 2 / * / ; & a b <       c / 5 , @               + ",
"                          d     ! % > : e | ; % % ' ' f , % % , [ [ [ , ' : * * * } } 1 } % / g < 5   | * 5 ,                 + ",
"                      . d h   { % > i } | - % ' , f ; j f , [ 6 k l m l m ' [ ( : / 4 : 1 } n o 2 0 p   q r j i   @           + ",
"                        % :   * > r } | 4 ' [ ; / [ f f l l k m ' ' [ ' [ l k , [ , , * * % | 8 % 7 s e   * r -   .           + ",
"                      / t u   : r 1 4 1 j ' f ' , , l * : * m m m v ' ' , [ ' m w v ' f _ / * | 2 % x -     y z A             + ",
"                      , :   ; 7 : 9 ; % 5 , ' , v B ; * C D E F G H H G I * : ( f f J w , ' : % 2 K # 7 (     L p             + ",
"                    M ; A   d 8 ; / 8 [ ' ' B B N ; I I I G O % 2 | 2 P Q O / 1 | 9 # l ' ' : # 7 1 R S &     ' [             + ",
"                    * 0     i * : 9 [ , , T B 4 , F G G ( e 1 [ , f , ( , F G I Q f | | * f j 7 l i U y < V                   + ",
"                  # : 9   > W 1 2 4 j , C B o O G _ [ % 2 : % % * * * * : ' , , F F F | } , % ' J / X u ; Y                   + ",
"      @           z       Z i 8 i L , C B 4 ` y 5 % / / e 2 2 | 2 1 2 1 * / / [ f 5 F O g e ' m y  ./ * [ ]                   + ",
"                  ..b c V | 7 8 # ' +.f ` G f ; % : 1 | # f [ 5 [ ' , ' 2 | * - * : G F I 1 ' ' _ 3 & t z 5 <                 + ",
"                  z ^ ) V d * % j [ @.G z j , % n | # 5 @.@.` H T +.#.3 , , 1 | : % f % I F , , $.%.Y M r , &                 + ",
"            .     o s h &._ } ; j v *.I c - * 1 | , T T Q O F G I I =. .-.@.' r 1 * % I # F C ; ; ' ;.* K ; w                 + ",
"    .           ) * b u &._ 8 o S B G  .( ; 1 | 5 [ E O I I I I G I G I >.,.[ f o | : ' O c B [ - % < * : A 3       .         + ",
"                y & a p M f z : j z Q $.i : 9 [ ' =.G G , , , [ B '.'.'.I [ ).' , 1 % f G Q ,.' 5 z 3 j * 8 !.                + ",
"                > [ ..b : y B 7 v G I ( i } ' +.).I ( C '.~.{.'.'.F G '.'.I F =.@., | * f I +.B [ 4 { ( * K ,             @   + ",
"                < & X s ~ ' N n ,.I Q x # e [ +.F ' O '.~.'.{.{.'.'.'.G {.G , G I , / 2 f O Q N [ , f  .y * ~ _               + ",
"                c c ..].c , v | % H ) 7 1 ' ' C ,.Q '.'.{.{.'.'.'.{.{.'.'.~.I Q G ' ' | * f Q T J [ # %.[ 7 0 f       .       + ",
"                Y > 2 Z y ' B 2 i E ) o 1 5 -.[ { '.'.'.{.{.'.^.'.~.'.'.F '.I ` F -., 2 % - I O B , f , [ 7 9 _               + ",
"                ) # b * * ( T /.2 : ' o } ' ).Y G {.{.{.{.'.'.'.~.(.'.'.F {.I H G +.' - } 2 G I D k f [ 5 i 9 _               + ",
"                ) : b * : ( N 7 W | , o } 5 -.F O {.-.{.'.'._.:.^.'.~.'.G '.I Q G -., / 2 ' / I *.l f [ j o 9 f               + ",
"      @         ) : b * * $.N O # ' , i 2 [ -.Q I {.,.{.'.'._.(.^.<.'.'.F '.C O G [ ' * 2 ( 4 O [.k ' 5 L i 0 $.              + ",
"                ) * R : # _ N @.T _ [ 7 1 5 -.G I ).I {.{.{.~._.~.'.'.^.'.~.B I ).f ( / 2 f | G *.l [ _ - : 0 y           .   + ",
"            .   ) y p h ~ $., B G I &.* 9 f -.I G ).G '.'.'.{.{._.{._.'.{.I ~.Q L C f | / F n N B l $.' % : 0 '   @           + ",
"                  ] X ].# f ' N T F : % 9 , E G I ).I '.P '.{.'.{.O '.{.{.'.~.L ).[ f e * P } v B ' j ' * 8 ( c     .         + ",
"              @   j x s y / [ N T F G c e 1 ( ).I I O '.'.G +.'.{.'.{.{.{., ).I =., > 9 # ` * m B f c , % 0 , p               + ",
"    @             ! 7 t : : j ' C D I y z } [ =.).Q f P {.{.{.6 3 ' ' f ' I O -.+.' 2 : !.I ; B l S ~ ' b 1 = Y               + ",
"                  > >.}.x > [ ' ' E I Q ) ; | ( ' =.D |.O '.{.'.{.'.{.O G I ,.f ' } } / P Q N [ f f %.[ ^ % l     .           + ",
"        .         & c r d _ i j , B X F C p | : j , +.I ).I I O I I I G |.+., [ / | ~ > Q : m v [ - Y ~ R : w                 + ",
"                  = f o &.f , ' ( m [.=.H $.* 9 ( 5 [ B f -.O F I O G O C ' $.- 2 ; %./ Q / v 6 j - ' ; : ,                   + ",
"                  : Y i d , ' ' k y +.[.h ` 5 7 # A ' $.' ).5 @.).,.+.f L ' } 8 - f F Q ` 4 ( >.z f : M r =     7 5   .       + ",
"                  #.* = t s S , ' 6 ( ,.F x r %.4 - 0 8 , f ' [ [ , [ - 2 1 i r ( I - Q v m l z , 5 i M ) <     X _           + ",
"                    = / 4 V z j j ' p z S |.I G Y u u o 2 1 8 A 9 0 0 2 - 1.y F Q H %.6 w f r [ [ ~ h Z y 6       @         . + ",
"                    $.5 > &.h - # j c = > k 6 E [.F F ;.L [ y ) c ) u M i Q F B L ) & $ #.#.5 5 f &.h f >.    f %             + ",
"                M     #.L #.K 0 - % S ..$.( w w k i r i A 9 2 X N *.D H Q !.i [ f ' f  .o j i ; o i _ *   . ( _ f             + ",
"                x     ; # z 7 8 } / 7 >.[ ..y _ f k l m Q ` Q ` H Q G %. .) * o '  .w i 5 7 - ^ z [ x ;     _ f     @         + ",
"                y *     : [ y p * 2 - / 5 j x j , _ m k 6 k F Q Q G !.< ( - > ' w %.%.[ f % 9 4 L _ Z   d c ' &               + ",
"        @         ( t     q R ( 7 } } - - 5 [ , ' - % [ _ ' ' f ' [ ' % * 3  . .= f _ * / } - [ j 7 8   &.f (                 + ",
"            .     %.( }     j   | | % } 2 - % 5 , [ [ f * * * * * * %.3 3  .' - , ( * * 1 * [ f 5 r p W % %.)                 + ",
"                .   2.'         : y 4 1 2 2 1 # / : : , f ' f f f f , , ' % / * : : | | * ( L 4 % #.    h /                   + ",
"                    { V d         y & $.4 : 9 g 1 2 % : * * : : : : : * * # 2 2 | | / : & : < ! $     f % 8                   + ",
"                      c c 5           # # = > % % - 9 2 | 1 # * : : g | 2 2 2 / f ( $.< c !         >.f f       _             + ",
"              .       c : : - /         .   3 > > ! _ $.* % 2 1 | | 2 e / f ( & < ) ]         - c $ ' S       _ [             + ",
"                        7 j f i # -                 ;.! Y _ ( f ' ( ( f ] ~ Y                 _ f f c       y f               + ",
"                    @       h ] { )   $.$.                c ) ) ~ c ) ;.<               ( t y f f >       $.( @               + ",
"                                      o ' (                                             ' ( )           &._                   + ",
"                                            _                                           @                                     + ",
"                                  @                                                                                           + ",
"                                                                                                                              + ",
"                                                                  .                                                           + ",
"                                                          @                                                                   + ",
"                                                                                                              @               + ",
"+ + + + + + + + + + + + + + + + + + + + + + + + + + + + + + + + + + + + + + + + + + + + + + + + + + + + + + + + + + + + + + + + "};
