/* XPM */
static char * floor2_xpm[] = {
"64 64 4 1",
" 	c #708090",
".	c #8090A0",
"+	c #506070",
"@	c #607080",
"                                                     .         +",
"   .                                .   .                      +",
"                                                               +",
"                                         .         @           +",
"                            .                                  +",
"                         .                                 . . +",
"               .                                               +",
"          @                              @                     +",
"                                                .              +",
"                                                @ @            +",
"                       @     @                                 +",
"                                           .           @       +",
"                                                               +",
"           .                                             @     +",
"                                                         .     +",
"                                     @     @                   +",
"                            @                                  +",
"                 @  .                                          +",
"           .                                                   +",
"                                                               +",
"   @                                                           +",
"                                 .                             +",
"                                 @                             +",
"      .                 .                                      +",
"  .                  .             @                      .    +",
"          @                                                    +",
"                               .                             @ +",
"                                                               +",
"                                               @           .   +",
"                                             .   @             +",
"                           @                                   +",
"                                          . @                  +",
"   @    .                                                      +",
"                                                             . +",
"      .                                      @      .    @     +",
"                                                          .    +",
"       @                                                       +",
"  @                                                            +",
"                                                         .     +",
"    .                                            .             +",
"                                                     .         +",
"                  @                                        .   +",
"                                                               +",
"          @      @                        @      .       @    .+",
"                                                               +",
"        @                                            .         +",
"           .                                              @    +",
"                  @                             .    @         +",
"    @                                                          +",
"      .                              .                         +",
"        .                        .                             +",
"                                                               +",
"                                                               +",
"       .            .                     .                    +",
"                                                               +",
"          @                                      .     @       +",
"                   .                                           +",
"                                            @                  +",
"                 @                                             +",
"                                                               +",
"                                 .                             +",
"                             @                                 +",
"                                                       @       +",
"++++++++++++++++++++++++++++++++++++++++++++++++++++++++++++++++"};
