/* XPM */
static char * rick_right_xpm[] = {
"64 64 478 2",
"  	c #708090",
". 	c #8090A0",
"+ 	c #506070",
"@ 	c #607080",
"# 	c #000211",
"$ 	c #51778A",
"% 	c #738DA4",
"& 	c #80A9BF",
"* 	c #4B708A",
"= 	c #10182D",
"- 	c #8EB5C6",
"; 	c #091128",
"> 	c #8BB5CB",
", 	c #89B3C1",
"' 	c #5C7B8F",
") 	c #07122E",
"! 	c #87B0C2",
"~ 	c #0C1323",
"{ 	c #091932",
"] 	c #0B203F",
"^ 	c #84ADBF",
"/ 	c #85B9C6",
"( 	c #85B4C4",
"_ 	c #2C4D70",
": 	c #82B1C5",
"< 	c #8DB7C7",
"[ 	c #071B34",
"} 	c #86AFC1",
"| 	c #7DA7C0",
"1 	c #617C99",
"2 	c #0A1833",
"3 	c #7CAAC1",
"4 	c #81B0C2",
"5 	c #89B4C5",
"6 	c #80AFC1",
"7 	c #87B1BF",
"8 	c #86B5C5",
"9 	c #010D1B",
"0 	c #5E829C",
"a 	c #81B0C0",
"b 	c #8BB4C6",
"c 	c #86B3C6",
"d 	c #83AEC1",
"e 	c #8AB5C8",
"f 	c #87B5C5",
"g 	c #8BB6C7",
"h 	c #84B3C5",
"i 	c #84AFC0",
"j 	c #041833",
"k 	c #0E1E37",
"l 	c #88B2C8",
"m 	c #7EB1C4",
"n 	c #88B5C8",
"o 	c #8FB8CA",
"p 	c #97B9D2",
"q 	c #56747C",
"r 	c #A69B89",
"s 	c #A49987",
"t 	c #5F7C82",
"u 	c #030A1C",
"v 	c #2F4A67",
"w 	c #84B2C2",
"x 	c #81B0C4",
"y 	c #8BB8CD",
"z 	c #466776",
"A 	c #A6967D",
"B 	c #CEC8A8",
"C 	c #C9BBA1",
"D 	c #BEAE95",
"E 	c #493B20",
"F 	c #0C0F20",
"G 	c #85B0C1",
"H 	c #83AEBF",
"I 	c #919489",
"J 	c #C0B297",
"K 	c #C6B7A0",
"L 	c #C3B399",
"M 	c #C7B99C",
"N 	c #577C99",
"O 	c #86B0C0",
"P 	c #8AB7CC",
"Q 	c #86AFC3",
"R 	c #89B2C4",
"S 	c #83B2C4",
"T 	c #9DA097",
"U 	c #C2B49A",
"V 	c #CCBEA3",
"W 	c #587982",
"X 	c #87B4BA",
"Y 	c #5C8895",
"Z 	c #503A23",
"` 	c #0F203A",
" .	c #54778A",
"..	c #65859E",
"+.	c #8AB3C5",
"@.	c #83B2C6",
"#.	c #99C0D1",
"$.	c #A3A49E",
"%.	c #C4B99D",
"&.	c #C1B59B",
"*.	c #CBBBA1",
"=.	c #A89783",
"-.	c #527072",
";.	c #402F1D",
">.	c #111E31",
",.	c #6388A3",
"'.	c #6085A0",
").	c #5E839D",
"!.	c #6184A0",
"~.	c #A6A89D",
"{.	c #CABCA2",
"].	c #C9B99F",
"^.	c #83745D",
"/.	c #C6B69D",
"(.	c #C1B096",
"_.	c #C2B6A0",
":.	c #081A2E",
"<.	c #588099",
"[.	c #59859E",
"}.	c #638CAC",
"|.	c #5D86A2",
"1.	c #AFB1AC",
"2.	c #C1B29B",
"3.	c #C1B398",
"4.	c #74684E",
"5.	c #DCF2EF",
"6.	c #EBFAF5",
"7.	c #B5C5C4",
"8.	c #00101D",
"9.	c #5C869F",
"0.	c #5E85A2",
"a.	c #608CA5",
"b.	c #618DA6",
"c.	c #51452B",
"d.	c #AC9B87",
"e.	c #CBBBA2",
"f.	c #C9BBA0",
"g.	c #9F907D",
"h.	c #C9D9CE",
"i.	c #E6F6F3",
"j.	c #807258",
"k.	c #071425",
"l.	c #071727",
"m.	c #5E81A1",
"n.	c #5F84A1",
"o.	c #6085A2",
"p.	c #708A97",
"q.	c #C4B49B",
"r.	c #C5B79D",
"s.	c #C4B69B",
"t.	c #736653",
"u.	c #BEB096",
"v.	c #C6B299",
"w.	c #C7B99F",
"x.	c #47381B",
"y.	c #021124",
"z.	c #57839C",
"A.	c #5A7F9C",
"B.	c #8E7C68",
"C.	c #C5B6A1",
"D.	c #C6B89E",
"E.	c #C2B299",
"F.	c #C6B69C",
"G.	c #76684E",
"H.	c #543C16",
"I.	c #132235",
"J.	c #64839F",
"K.	c #5B7F99",
"L.	c #537F9A",
"M.	c #433C32",
"N.	c #CABFA9",
"O.	c #C2B69C",
"P.	c #C3B59A",
"Q.	c #C0B298",
"R.	c #BCAE93",
"S.	c #CBBDA2",
"T.	c #4A3C22",
"U.	c #162C44",
"V.	c #566B88",
"W.	c #43372B",
"X.	c #D0C4AE",
"Y.	c #C4B99B",
"Z.	c #6F634B",
"`.	c #5D4C3A",
" +	c #3C4D17",
".+	c #2B3E07",
"++	c #56472A",
"@+	c #7E8389",
"#+	c #878F9C",
"$+	c #6B6C66",
"%+	c #5E5141",
"&+	c #C4B8A0",
"*+	c #C2B298",
"=+	c #7A6E5E",
"-+	c #C2B499",
";+	c #B9C3A1",
">+	c #101D26",
",+	c #ABB7AD",
"'+	c #A1A499",
")+	c #8A8277",
"!+	c #3C2C13",
"~+	c #9F8F76",
"{+	c #A1927B",
"]+	c #8E7E6F",
"^+	c #000508",
"/+	c #E8EEEC",
"(+	c #BAC4BC",
"_+	c #D5E0DC",
":+	c #7A9CA5",
"<+	c #3B5055",
"[+	c #010C20",
"}+	c #AFBBAF",
"|+	c #DBDFEA",
"1+	c #DBE5DD",
"2+	c #E0EFE8",
"3+	c #3D6B7A",
"4+	c #20465B",
"5+	c #BDC5B6",
"6+	c #B5C2B1",
"7+	c #E2E7EB",
"8+	c #E4E7EC",
"9+	c #EBF5F4",
"0+	c #A0ACA2",
"a+	c #2E5769",
"b+	c #040D1E",
"c+	c #BAC4B9",
"d+	c #828C83",
"e+	c #E7EAF1",
"f+	c #E2E5EA",
"g+	c #798176",
"h+	c #9DA99B",
"i+	c #709FB3",
"j+	c #848F7F",
"k+	c #B6C1B3",
"l+	c #AFBBAD",
"m+	c #DFE3E6",
"n+	c #DFE4E7",
"o+	c #68716E",
"p+	c #DCE7E3",
"q+	c #72A2B8",
"r+	c #03081E",
"s+	c #070D2D",
"t+	c #ACBAAB",
"u+	c #B6C2B8",
"v+	c #E3E4E9",
"w+	c #E5E9EA",
"x+	c #D9E6DF",
"y+	c #679DB7",
"z+	c #BECABC",
"A+	c #00041A",
"B+	c #B8C4B6",
"C+	c #E6ECEC",
"D+	c #00060F",
"E+	c #E5E8ED",
"F+	c #E3E8EC",
"G+	c #D6E0D5",
"H+	c #699EBD",
"I+	c #030B22",
"J+	c #C4CBC4",
"K+	c #010A2B",
"L+	c #B6C2B4",
"M+	c #DEE3E6",
"N+	c #D0DBD7",
"O+	c #E6E7EB",
"P+	c #E3E4E8",
"Q+	c #788A8A",
"R+	c #6099B4",
"S+	c #00071E",
"T+	c #B9C7B6",
"U+	c #020822",
"V+	c #E6EBEE",
"W+	c #E9E8ED",
"X+	c #C5D5CB",
"Y+	c #EEF0ED",
"Z+	c #E3E6EB",
"`+	c #DCE5E2",
" @	c #6FA3B8",
".@	c #001029",
"+@	c #BAC5B7",
"@@	c #020A21",
"#@	c #E3E7EA",
"$@	c #E4E5E9",
"%@	c #E0EAE2",
"&@	c #353E45",
"*@	c #E5E4EA",
"=@	c #778578",
"-@	c #C1C8C1",
";@	c #BBC7B9",
">@	c #060C1C",
",@	c #E6EAEB",
"'@	c #E1E5E8",
")@	c #32454C",
"!@	c #E8F1EC",
"~@	c #E1E9EC",
"{@	c #1B3654",
"]@	c #BDC8C0",
"^@	c #C7D3C5",
"/@	c #C0C3BA",
"(@	c #DDE1E2",
"_@	c #E2E6E9",
":@	c #C0CAC1",
"<@	c #0D1F29",
"[@	c #E5EBEB",
"}@	c #DEE4E4",
"|@	c #E7ECE8",
"1@	c #05162A",
"2@	c #0D1D37",
"3@	c #C6C9C2",
"4@	c #E2E3E8",
"5@	c #DBDEE7",
"6@	c #E1E4E9",
"7@	c #E0E4E7",
"8@	c #BEC1B6",
"9@	c #A5AAA3",
"0@	c #E9EAEC",
"a@	c #A08B76",
"b@	c #615E4F",
"c@	c #B4B9B2",
"d@	c #E1E0E5",
"e@	c #E1E2E7",
"f@	c #DFE0E5",
"g@	c #E2E1E6",
"h@	c #BEC8C0",
"i@	c #5A6869",
"j@	c #B3BBA6",
"k@	c #E7E8EC",
"l@	c #E1E3DE",
"m@	c #101D30",
"n@	c #39321F",
"o@	c #9A8977",
"p@	c #595240",
"q@	c #A9B4A6",
"r@	c #E2E3E7",
"s@	c #DBDEE5",
"t@	c #DFE2E7",
"u@	c #4C4A35",
"v@	c #091223",
"w@	c #021126",
"x@	c #7EA5B6",
"y@	c #C4B7A4",
"z@	c #493E1E",
"A@	c #3E331D",
"B@	c #5C543F",
"C@	c #0A1A31",
"D@	c #B2C0AF",
"E@	c #D9E5E5",
"F@	c #DFE4E8",
"G@	c #E4E8EB",
"H@	c #DBE4E9",
"I@	c #4D4C30",
"J@	c #10192A",
"K@	c #BDAF95",
"L@	c #C4B69C",
"M@	c #C0B097",
"N@	c #483A20",
"O@	c #A08F75",
"P@	c #0A1B37",
"Q@	c #E0E4E5",
"R@	c #DEE1E6",
"S@	c #E0E3E8",
"T@	c #5E6C6C",
"U@	c #5E5534",
"V@	c #594C29",
"W@	c #453A24",
"X@	c #CCBCA5",
"Y@	c #8E8A71",
"Z@	c #C7B6A4",
"`@	c #111C2E",
" #	c #DEE1E8",
".#	c #D3DED6",
"+#	c #34311E",
"@#	c #655734",
"##	c #6F6339",
"$#	c #0C151E",
"%#	c #C7B79E",
"&#	c #B7A68A",
"*#	c #513F2B",
"=#	c #BAC5B4",
"-#	c #E1E2E4",
";#	c #DDE1E0",
">#	c #2F393B",
",#	c #535047",
"'#	c #6E603D",
")#	c #6D6439",
"!#	c #64572B",
"~#	c #4B3C29",
"{#	c #3D2D1E",
"]#	c #081023",
"^#	c #BAC5BD",
"/#	c #DDE1E4",
"(#	c #E0E9E6",
"_#	c #9FA9AA",
":#	c #45391F",
"<#	c #13181E",
"[#	c #685E3B",
"}#	c #6E6238",
"|#	c #716841",
"1#	c #182631",
"2#	c #0B141B",
"3#	c #DAE6DA",
"4#	c #CFDDD0",
"5#	c #C6D0D2",
"6#	c #0E171E",
"7#	c #3B341A",
"8#	c #372C16",
"9#	c #3C3525",
"0#	c #6E5E3A",
"a#	c #776C3F",
"b#	c #1A2515",
"c#	c #232D36",
"d#	c #3B454E",
"e#	c #3F4551",
"f#	c #0F0F07",
"g#	c #40391C",
"h#	c #3C3719",
"i#	c #1A1A10",
"j#	c #212123",
"k#	c #705F41",
"l#	c #706343",
"m#	c #564F32",
"n#	c #0A0A08",
"o#	c #484526",
"p#	c #484326",
"q#	c #4C4823",
"r#	c #6F6F6F",
"s#	c #37301D",
"t#	c #564D30",
"u#	c #63583A",
"v#	c #111924",
"w#	c #3E391C",
"x#	c #4D482A",
"y#	c #504D2C",
"z#	c #342F1C",
"A#	c #000000",
"B#	c #655835",
"C#	c #5F5438",
"D#	c #020B10",
"E#	c #382D17",
"F#	c #474425",
"G#	c #4D4A2B",
"H#	c #413C1E",
"I#	c #101519",
"J#	c #5D5234",
"K#	c #635435",
"L#	c #60593D",
"M#	c #04090D",
"N#	c #000201",
"O#	c #444325",
"P#	c #392F14",
"Q#	c #685B3B",
"R#	c #090A0C",
"S#	c #282D26",
"T#	c #F0DCA9",
"U#	c #060606",
"V#	c #3A3017",
"W#	c #605539",
"X#	c #020607",
"Y#	c #32352E",
"Z#	c #2F302A",
"`#	c #151811",
" $	c #453C1D",
".$	c #DDC690",
"+$	c #040807",
"@$	c #2D3029",
"#$	c #5C5C50",
"$$	c #0B0C0E",
"%$	c #2C2F28",
"&$	c #2F312C",
"*$	c #292C25",
"=$	c #353631",
"-$	c #0A0A0C",
";$	c #080C0B",
">$	c #020403",
",$	c #030905",
"'$	c #363B35",
")$	c #363833",
"!$	c #373735",
"~$	c #2B2E27",
"                                                                                                          .                   + ",
"      .                                                                 .       .                                             + ",
"                                                                                                                              + ",
"                                                                                  .                   @                       + ",
"                                                        .                                                                     + ",
"                                                  .                   #                                               .   .   + ",
"                              .                               $       %                                                       + ",
"                    @                                         & *   = - ;         @                                           + ",
"                                                              > , ' ) ! ~                       .                             + ",
"                                                    { ]       ^ / ( _ : <                       @   @                         + ",
"                                              @     [ } | 1 2 3 4 5 6 7 8 9                                                   + ",
"                                                      0 a b c d e f g h i j           .                       @               + ",
"                                                      k l m n o p q r s t u                                                   + ",
"                      .                                 v w x y z A B C D E                                       @           + ",
"                                                    F G 4 H w ( I J K L M D                                       .           + ",
"                                                N ! O P Q e R S T U V W X Y Z         @                                       + ",
"                                                  `  ...+.x @.#.$.%.&.*.=.-.;.                                                + ",
"                                  @     .             >.,.'.).!.~.{.].^./.(._.                                                + ",
"                      .                               :.<.[.}.|.1.2.3.4.5.6.7.                                                + ",
"                                                    8.9.0.a.b.c.d.e.f.g.h.i.j.                                                + ",
"      @                                           k.l.m.n.o.p.q.r.s.V t.u.v.w.x.                                              + ",
"                                                        y.z.A.B.C.L D.E.E.F.G.H.                                              + ",
"                                                      I.J.K.L.M.N.O.P.Q.R.S.T.                                                + ",
"            .                                   .         U.V.W.X.Y.Z.`. +.+++                                                + ",
"    .                                     .               @+#+$+%+&+*+=+-+;+                                        .         + ",
"                    @                                     >+,+'+)+!+~+{+]+                                                    + ",
"                                                        ^+/+(+_+:+<+                                                      @   + ",
"                                                        [+}+|+1+2+3+4+                                                        + ",
"                                                        5+6+7+8+9+0+a+                        @                       .       + ",
"                                                      b+c+d+e+f+g+h+i+                    .       @                           + ",
"                                                      j+k+l+m+n+o+p+q+                                                        + ",
"                                                    r+s+t+k+u+v+w+x+y+              .   @                                     + ",
"      @         .                                   z+A+B+C+D+E+F+G+H+                                                        + ",
"                                                  I+J+K+L+M+N+O+P+Q+R+                                                    .   + ",
"            .                                     S+T+U+V+W+X+Y+Z+`+ @                    @             .         @           + ",
"                                                  .@+@@@#@$@%@&@*@8+=@                                              .         + ",
"              @                                   -@;@>@,@#@'@)@!@~@,@{@                                                      + ",
"    @                                             ]@^@/@(@m+_@:@<@[@}@|@                                                      + ",
"                                                  1@2@3@4@5@6@7@8@9@v+0@l+                                        .           + ",
"        .                                         a@b@c@d@e@f@g@h@i@j@k@l@m@                      .                           + ",
"                                                n@o@p@q@r@6@E+s@t@u@v@w@x@y@z@                            .                   + ",
"                                    @           A@B@C@D@E@_@F@G@H@I@J@  K@L@M@N@                                      .       + ",
"                                                  O@P@Q@M+$@R@S@T@U@V@  W@X@Y@Z@                                              + ",
"                    @             @                 `@g@ #R@7+.#+#@###$#  %#&#*#    @             .               @         . + ",
"                                                    =#-#S@Z+;#>#,#'#)#!#  ~#{#                                                + ",
"                @                                 ]#^#k@/#(#_#:#<#[#}#|#1#                                .                   + ",
"                      .                           2#3#4#5#6#7#8#  9#0#a#b#                                          @         + ",
"                                    @             c#d#e#f#g#h#i#  j#k#l#m#                      .         @                   + ",
"        @                                             n#o#p#q#r#    s#t#u#v#                                                  + ",
"            .                                         w#x#y#z#      A#B#C#D#                                                  + ",
"                .                                   E#F#G#H#      . I#J#K#L#                                                  + ",
"                                                  M#N#o#O#            P#Q#Q#                                                  + ",
"                                                R#S#T#U#              V#K#W#                                                  + ",
"              .                         .       X#Y#Z#A#              `# $.$        .                                         + ",
"                                                  +$@$#$$$              %$&$*$=$-$                                            + ",
"                    @                               ;$>$,$              '$'$)$!$~$                .           @               + ",
"                                      .                                                                                       + ",
"                                                                                        @                                     + ",
"                                  @                                                                                           + ",
"                                                                                                                              + ",
"                                                                  .                                                           + ",
"                                                          @                                                                   + ",
"                                                                                                              @               + ",
"+ + + + + + + + + + + + + + + + + + + + + + + + + + + + + + + + + + + + + + + + + + + + + + + + + + + + + + + + + + + + + + + + "};
