/* XPM */
static char * rick_down_xpm[] = {
"64 64 532 2",
"  	c #708090",
". 	c #8090A0",
"+ 	c #506070",
"@ 	c #607080",
"# 	c #7D9DAA",
"$ 	c #030418",
"% 	c #85B8CD",
"& 	c #0E1124",
"* 	c #0A0917",
"= 	c #96C0D0",
"- 	c #02071D",
"; 	c #8FBDCC",
"> 	c #86B5C7",
", 	c #040311",
"' 	c #B2CFDF",
") 	c #86B7C8",
"! 	c #000217",
"~ 	c #01071D",
"{ 	c #8ABBCC",
"] 	c #9FC3D1",
"^ 	c #7B8F9A",
"/ 	c #88BCC9",
"( 	c #8FBACB",
"_ 	c #040C1F",
": 	c #040821",
"< 	c #000211",
"[ 	c #060D27",
"} 	c #8CBACA",
"| 	c #87B6CA",
"1 	c #91BCCC",
"2 	c #89BACB",
"3 	c #8ABAD0",
"4 	c #94BFCF",
"5 	c #04061B",
"6 	c #000518",
"7 	c #83B2C2",
"8 	c #8AB5C5",
"9 	c #8AB9CB",
"0 	c #6D8E97",
"a 	c #8DB7CD",
"b 	c #9CBDC4",
"c 	c #6A6347",
"d 	c #71674C",
"e 	c #716A50",
"f 	c #86B4C3",
"g 	c #8DBBC8",
"h 	c #87B7CB",
"i 	c #86B3C8",
"j 	c #080925",
"k 	c #06081F",
"l 	c #7FAEC2",
"m 	c #93BECE",
"n 	c #706545",
"o 	c #BCB297",
"p 	c #CFC3A9",
"q 	c #C2B098",
"r 	c #BEB093",
"s 	c #9F9981",
"t 	c #93B7C3",
"u 	c #8AB9CD",
"v 	c #76939B",
"w 	c #8194A2",
"x 	c #88B9CA",
"y 	c #93B6BC",
"z 	c #B7B6A4",
"A 	c #BBBCAA",
"B 	c #B9B7A8",
"C 	c #B8B9A9",
"D 	c #B9BAA8",
"E 	c #B8B9A7",
"F 	c #61573C",
"G 	c #8FBDCD",
"H 	c #040B1E",
"I 	c #000516",
"J 	c #597A89",
"K 	c #87B8C7",
"L 	c #6D6C4E",
"M 	c #9BC9D8",
"N 	c #9EC9DA",
"O 	c #A3CFDC",
"P 	c #9FCDDD",
"Q 	c #9ECCDC",
"R 	c #94C3D3",
"S 	c #BDB39A",
"T 	c #83B3C1",
"U 	c #71919C",
"V 	c #000212",
"W 	c #8DB9C6",
"X 	c #86B9CC",
"Y 	c #8CB9CC",
"Z 	c #6E694B",
"` 	c #B7AD92",
" .	c #C6BB9F",
"..	c #5E5534",
"+.	c #4C4326",
"@.	c #CABEA4",
"#.	c #BFB699",
"$.	c #635435",
"%.	c #98BFCE",
"&.	c #8FBED0",
"*.	c #6F919B",
"=.	c #6E909A",
"-.	c #000210",
";.	c #8FBACA",
">.	c #86B6CC",
",.	c #706B4D",
"'.	c #F0EEE2",
").	c #100C00",
"!.	c #59513A",
"~.	c #56482E",
"{.	c #F9F1E4",
"].	c #625A35",
"^.	c #749199",
"/.	c #000313",
"(.	c #020514",
"_.	c #8EB9CA",
":.	c #676242",
"<.	c #53503D",
"[.	c #ECEDE5",
"}.	c #A3957B",
"|.	c #CBBFA5",
"1.	c #E8E6DA",
"2.	c #F5F5E9",
"3.	c #C5BBA0",
"4.	c #94BACD",
"5.	c #6B8A8F",
"6.	c #090B24",
"7.	c #85B2C5",
"8.	c #86B9CA",
"9.	c #756D48",
"0.	c #696041",
"a.	c #BDB296",
"b.	c #645737",
"c.	c #655F3B",
"d.	c #C6B89B",
"e.	c #C3B399",
"f.	c #BDAF94",
"g.	c #748F9A",
"h.	c #080B2C",
"i.	c #6F8C94",
"j.	c #718F97",
"k.	c #665F42",
"l.	c #675E41",
"m.	c #C0B298",
"n.	c #C1B398",
"o.	c #544A26",
"p.	c #BEB096",
"q.	c #C0B297",
"r.	c #BBB092",
"s.	c #65868F",
"t.	c #769198",
"u.	c #01031C",
"v.	c #655C3B",
"w.	c #C1B399",
"x.	c #C5B79A",
"y.	c #BDAF95",
"z.	c #C4B598",
"A.	c #BEB095",
"B.	c #BFB093",
"C.	c #C7BCA0",
"D.	c #6B8586",
"E.	c #020828",
"F.	c #040517",
"G.	c #6F888D",
"H.	c #493B14",
"I.	c #473713",
"J.	c #3A2C11",
"K.	c #453514",
"L.	c #393013",
"M.	c #C4B699",
"N.	c #928B6F",
"O.	c #6C8389",
"P.	c #708F92",
"Q.	c #060A25",
"R.	c #060928",
"S.	c #6D8786",
"T.	c #C2B79B",
"U.	c #BFAF95",
"V.	c #7E9D62",
"W.	c #54923F",
"X.	c #403112",
"Y.	c #4B3C11",
"Z.	c #020317",
"`.	c #090C2B",
" +	c #020518",
".+	c #759296",
"++	c #2C2606",
"@+	c #C0B49C",
"#+	c #BEAF90",
"$+	c #B9B899",
"%+	c #948767",
"&+	c #719092",
"*+	c #010721",
"=+	c #302104",
"-+	c #928D70",
";+	c #C2B69C",
">+	c #766F55",
",+	c #010008",
"'+	c #040300",
")+	c #928C74",
"!+	c #928A73",
"~+	c #423918",
"{+	c #344441",
"]+	c #00000C",
"^+	c #909287",
"/+	c #EAEEE0",
"(+	c #DAECF0",
"_+	c #1D4F68",
":+	c #0C2F43",
"<+	c #23607F",
"[+	c #5A6A6A",
"}+	c #E9F4EE",
"|+	c #385247",
"1+	c #02020E",
"2+	c #BBC7B3",
"3+	c #D8DAD5",
"4+	c #63746E",
"5+	c #E7F9FB",
"6+	c #5192AE",
"7+	c #5494AF",
"8+	c #245C77",
"9+	c #E2E3DE",
"0+	c #D5D6D1",
"a+	c #DBDCD6",
"b+	c #B5C7AF",
"c+	c #B7BEAE",
"d+	c #D7D8D3",
"e+	c #E8EBE4",
"f+	c #D3D4CF",
"g+	c #EBFEFF",
"h+	c #4F8FAB",
"i+	c #4888A3",
"j+	c #296482",
"k+	c #D9DAD5",
"l+	c #5C7369",
"m+	c #DBDBD9",
"n+	c #E6EBE7",
"o+	c #3B574B",
"p+	c #DADCD7",
"q+	c #5E6D66",
"r+	c #DFE0DA",
"s+	c #E4F9FE",
"t+	c #4E8EA9",
"u+	c #4C8BAA",
"v+	c #275F7A",
"w+	c #DEDDDB",
"x+	c #D9DCD3",
"y+	c #DEE1DA",
"z+	c #DBDAD8",
"A+	c #384E42",
"B+	c #010220",
"C+	c #D8D8D6",
"D+	c #D2D8CE",
"E+	c #576359",
"F+	c #E2F4F6",
"G+	c #5395AF",
"H+	c #568FAC",
"I+	c #255C7A",
"J+	c #DCE1DA",
"K+	c #A4AF9F",
"L+	c #65766E",
"M+	c #DAD9D7",
"N+	c #D9DBDA",
"O+	c #2A3839",
"P+	c #DFE1DC",
"Q+	c #E3E8E1",
"R+	c #E9FCFF",
"S+	c #5191AC",
"T+	c #5193AD",
"U+	c #235B76",
"V+	c #E1E2DA",
"W+	c #6B716F",
"X+	c #A8B5A3",
"Y+	c #DCDDD8",
"Z+	c #D3D6CF",
"`+	c #406053",
" @	c #E8EAE5",
".@	c #E4E5E0",
"+@	c #20323E",
"@@	c #576862",
"#@	c #D8D9D4",
"$@	c #ECFEFF",
"%@	c #5090AB",
"&@	c #4F8FAA",
"*@	c #225B79",
"=@	c #DBDCD7",
"-@	c #ECEDE7",
";@	c #C9D3BB",
">@	c #9AA595",
",@	c #3C5148",
"'@	c #01051E",
")@	c #DADDD6",
"!@	c #E2E4DF",
"~@	c #EFFEFF",
"{@	c #4F90AC",
"]@	c #528FAB",
"^@	c #235A78",
"/@	c #D9DAD4",
"(@	c #64756F",
"_@	c #CAD4BC",
":@	c #66776F",
"<@	c #DADADA",
"[@	c #E9EEE7",
"}@	c #AEB0A5",
"|@	c #AEB7A6",
"1@	c #04091F",
"2@	c #DAD9D4",
"3@	c #566262",
"4@	c #508DAA",
"5@	c #215974",
"6@	c #EBEEE7",
"7@	c #D9DAD2",
"8@	c #D3D5C8",
"9@	c #020111",
"0@	c #F6F8F3",
"a@	c #40554C",
"b@	c #EBEDE8",
"c@	c #BCC2B4",
"d@	c #00020F",
"e@	c #D8D7D5",
"f@	c #B7C4B2",
"g@	c #E8F7FE",
"h@	c #518DA9",
"i@	c #215A78",
"j@	c #546360",
"k@	c #CED6C1",
"l@	c #00041A",
"m@	c #334B3E",
"n@	c #020623",
"o@	c #DEDFD9",
"p@	c #D7D7D5",
"q@	c #050416",
"r@	c #03051C",
"s@	c #DADAD8",
"t@	c #D7DAD3",
"u@	c #C4D9D4",
"v@	c #4E8EAA",
"w@	c #245D78",
"x@	c #A8B69D",
"y@	c #DADBD6",
"z@	c #D5DBCD",
"A@	c #EDEFE1",
"B@	c #AFBBA7",
"C@	c #406252",
"D@	c #060723",
"E@	c #C5C9BA",
"F@	c #010010",
"G@	c #040615",
"H@	c #DADCDB",
"I@	c #000F2A",
"J@	c #5090A9",
"K@	c #4F91AB",
"L@	c #2A6380",
"M@	c #DEE0DF",
"N@	c #D6E0C8",
"O@	c #FFFFFF",
"P@	c #A2AF95",
"Q@	c #DCDCDC",
"R@	c #463F22",
"S@	c #BCAC93",
"T@	c #DFE0DB",
"U@	c #00102A",
"V@	c #589AB4",
"W@	c #5899B7",
"X@	c #2E6784",
"Y@	c #DBDDDC",
"Z@	c #D5DECD",
"`@	c #F8FAED",
" #	c #B3BBA4",
".#	c #BCC5B0",
"+#	c #C9B9A0",
"@#	c #C1B198",
"##	c #BCAE91",
"$#	c #453B22",
"%#	c #A5AF97",
"&#	c #D8D8D8",
"*#	c #090907",
"=#	c #312401",
"-#	c #DEC753",
";#	c #281E03",
">#	c #DBDAD5",
",#	c #070B24",
"'#	c #030619",
")#	c #020419",
"!#	c #6F9DB7",
"~#	c #C5B498",
"{#	c #928D79",
"]#	c #3E2F06",
"^#	c #362B19",
"/#	c #A7AF9A",
"(#	c #DBDED7",
"_#	c #10110B",
":#	c #383316",
"<#	c #3E3A15",
"[#	c #474222",
"}#	c #B7C2B2",
"|#	c #D8DAD7",
"1#	c #DCDBD9",
"2#	c #070C1F",
"3#	c #423513",
"4#	c #C1B698",
"5#	c #B9AB90",
"6#	c #7E7E66",
"7#	c #5C5C44",
"8#	c #3C2C0A",
"9#	c #A3AC97",
"0#	c #EDEEF0",
"a#	c #4A4420",
"b#	c #5C593A",
"c#	c #595635",
"d#	c #5F5A3A",
"e#	c #DDDED9",
"f#	c #071226",
"g#	c #BDAE8D",
"h#	c #BBB094",
"i#	c #BFB194",
"j#	c #342D03",
"k#	c #BBAC8B",
"l#	c #392905",
"m#	c #A4AC9D",
"n#	c #D9D9D7",
"o#	c #C7D2C1",
"p#	c #423B1E",
"q#	c #3D3E2C",
"r#	c #01190C",
"s#	c #525133",
"t#	c #050817",
"u#	c #E6E7E1",
"v#	c #0F2242",
"w#	c #D0BD9D",
"x#	c #C0B194",
"y#	c #ACA592",
"z#	c #211A00",
"A#	c #00010D",
"B#	c #E1E0DC",
"C#	c #090F1D",
"D#	c #5A5639",
"E#	c #04150D",
"F#	c #9EB79A",
"G#	c #535435",
"H#	c #4C4624",
"I#	c #DCDEDD",
"J#	c #D4DCC7",
"K#	c #CEBFA2",
"L#	c #A8A08B",
"M#	c #000316",
"N#	c #D6D7D2",
"O#	c #EAEBE5",
"P#	c #5C5739",
"Q#	c #04100C",
"R#	c #A0B99B",
"S#	c #5A593A",
"T#	c #5A5434",
"U#	c #040C23",
"V#	c #D6DEC9",
"W#	c #3B3014",
"X#	c #00000A",
"Y#	c #000106",
"Z#	c #5C5737",
"`#	c #5D593C",
" $	c #000D03",
".$	c #9EB69C",
"+$	c #52543E",
"@$	c #5D5936",
"#$	c #454124",
"$$	c #DDDFDA",
"%$	c #DAE3D0",
"&$	c #010214",
"*$	c #0A171D",
"=$	c #474224",
"-$	c #595538",
";$	c #605E45",
">$	c #97AE94",
",$	c #93AE8F",
"'$	c #0D1C15",
")$	c #5B5638",
"!$	c #575234",
"~$	c #0C1A23",
"{$	c #C8D1BE",
"]$	c #000D12",
"^$	c #58563F",
"/$	c #06110D",
"($	c #5C573A",
"_$	c #5D583B",
":$	c #05150B",
"<$	c #040B27",
"[$	c #413B21",
"}$	c #616044",
"|$	c #1B2C26",
"1$	c #4E472A",
"2$	c #020804",
"3$	c #4B4626",
"4$	c #5B5B43",
"5$	c #12231D",
"6$	c #4B4427",
"7$	c #4F482B",
"8$	c #0D190F",
"9$	c #585437",
"0$	c #5F5F45",
"a$	c #403E25",
"b$	c #4D4427",
"c$	c #494323",
"d$	c #07120A",
"e$	c #5A5537",
"f$	c #5F5A3D",
"g$	c #474627",
"h$	c #464124",
"i$	c #061808",
"j$	c #0B170D",
"k$	c #585336",
"l$	c #BEAE7D",
"m$	c #07190B",
"n$	c #061206",
"o$	c #555436",
"p$	c #645F3F",
"q$	c #1C2514",
"r$	c #212719",
"s$	c #000000",
"t$	c #C3B189",
"u$	c #E8DEC3",
"v$	c #23291F",
"w$	c #252D22",
"x$	c #414C3C",
"y$	c #343E35",
"z$	c #303829",
"A$	c #323730",
"B$	c #283023",
"C$	c #262E1F",
"D$	c #010707",
"E$	c #000002",
"F$	c #000201",
"G$	c #070707",
"                                                                                                          .                   + ",
"      .                                                                 .       .                                             + ",
"                                                                                                                              + ",
"                                                                                  .                   @                       + ",
"                                                        .                                                                     + ",
"                                                  .                                                                   .   .   + ",
"                              .                         #         $ $                                                         + ",
"                    @                                   % &     * = -             @                                           + ",
"                                                        ; > ,   ' ) !                           .                             + ",
"                                                        ~ { ] ^ / ( _                           @   @                         + ",
"                                              @ : <     [ } | 1 2 3 4 5 6 1 7                                                 + ",
"                                                  8 ; 9 0 a b c d e f g h i j         .                       @               + ",
"                                                  k l m | n o p q r s t u v                                                   + ",
"                      .                             w x y z A B C D E F G H                                       @           + ",
"                                                  I J K L M N O P Q R S T U V                                     .           + ",
"                                                # W X Y Z `  ...+.@.#.$.%.&.*.=.      @                                       + ",
"                                                  -.;.>.,.'.).!.~.{.).].Y ^./.                                                + ",
"                                  @     .           (._.:.<.[.}.|.1.2.3.4.5.                                                  + ",
"                      .                           6.7.8.9.0.a.b.c.d.e.f.} x g.                                                + ",
"                                                h.i.j.k.l.m.n.].o.n.p.q.r.} s.t.                                              + ",
"      @                                             u.v.c w.m.x.y.z.A.B.C.D.E.                                                + ",
"                                                    F.G.H.I.J.K.I.L.M.N.O.P.                                                  + ",
"                                                    Q.R.S.T.U.V.W.n.X.Y.Z.`. +                                                + ",
"            .                                   .       .+++@+r #+$+%+&+*+                                                    + ",
"    .                                     .                 =+-+;+>+  @                                             .         + ",
"                    @                                     ,+'+)+!+~+{+                                                        + ",
"                                                      ]+^+/+(+_+:+<+[+}+|+                                                @   + ",
"                                                    1+2+3+4+5+6+7+8+9+0+a+b+                                                  + ",
"                                                    c+d+e+f+g+h+i+j+k+l+m+n+o+                @                       .       + ",
"                                                      p+q+r+s+t+u+v+w+x+y+z+A+            .       @                           + ",
"                                                  B+C+D+9+E+F+G+H+I+J+K+L+M+                                                  + ",
"                                                    N+O+P+Q+R+S+T+U+V+W+X+Y+Z+`+    .   @                                     + ",
"      @         .                                  @.@+@@@#@$@%@&@*@=@-@;@>@=@,@                                              + ",
"                                                '@C+)@$ !@)@~@{@]@^@/@(@_@:@<@[@                                          .   + ",
"            .                                   }@m+|@1@2@3@~@]@4@5@6@7@8@9@z+0@a@        @             .         @           + ",
"                                                b@m+c@d@e@f@g@h+h@i@j@=@k@l@p+#@m@                                  .         + ",
"              @                               n@o@p@q@r@s@t@u@v@S+w@x@y@z@A@B@3+C@                                            + ",
"    @                                         d@D@E@F@G@H@m+I@J@K@L@M@s@N@O@P@Q@                                              + ",
"                                              R@S@    ]+T@m+U@V@W@X@Y@p+Z@`@ #3+.#                                .           + ",
"        .                                     +#@###$#%#&#s@*#=#-#;#Y@s@>#,#'#)#!#                .                           + ",
"                                              ~#{#]#^#/#=@(#_#:#<#[#}#|#1#2#3#4#5#                        .                   + ",
"                                    @         6#7#8#  9#H@0#a#b#c#d# +a+e#f#g#h#i#j#                                  .       + ",
"                                                k#l#  m#n#o#p#q#r#s#t#u#a+v#w#x#y#z#                                          + ",
"                    @             @                 A#=@B#C#D#E#F#G#H#P+I#J#  K#L#  @             .               @         . + ",
"                                                    M#N#O#H#P#Q#R#S#T#U#Y+V#  W#                                              + ",
"                @                                   X#9+Y#Z#`# $.$+$@$#$$$%$                              .                   + ",
"                      .                             &$*$=$-$;$>$,$'$)$!$~${$                                        @         + ",
"                                    @                 ]$R@P#^$    /$($_$:$<$                    .         @                   + ",
"        @                                               [$P#}$    |$=$1$2$                                                    + ",
"            .                                           3$b#4$    5$6$7$  .                                                   + ",
"                .                                       8$9$0$    a$b$c$                                                      + ",
"                                                        d$e$f$    g$h$i$                                                      + ",
"                                                        j$d#k$    l$m$                                                        + ",
"              .                         .               n$o$p$    q$r$s$            .                                         + ",
"                                                          t$u$    v$w$x$                                                      + ",
"                    @                                   y$z$A$    s$B$C$                          .           @               + ",
"                                      .               D$E$F$G$                                                                + ",
"                                                                                        @                                     + ",
"                                  @                                                                                           + ",
"                                                                                                                              + ",
"                                                                  .                                                           + ",
"                                                          @                                                                   + ",
"                                                                                                              @               + ",
"+ + + + + + + + + + + + + + + + + + + + + + + + + + + + + + + + + + + + + + + + + + + + + + + + + + + + + + + + + + + + + + + + "};
