/* XPM */
static char * rick_left_xpm[] = {
"64 64 448 2",
"  	c #708090",
". 	c #8090A0",
"+ 	c #506070",
"@ 	c #607080",
"# 	c #0A1A33",
"$ 	c #040C19",
"% 	c #7BA1B8",
"& 	c #141824",
"* 	c #9FC5DA",
"= 	c #051225",
"- 	c #85B5CB",
"; 	c #07101F",
"> 	c #80ACC7",
", 	c #517E9B",
"' 	c #031023",
") 	c #94BFD2",
"! 	c #041124",
"~ 	c #668CA3",
"{ 	c #8AB8CF",
"] 	c #5E88A0",
"^ 	c #8DBAD1",
"/ 	c #8ABAD1",
"( 	c #3B5B70",
"_ 	c #84B6CF",
": 	c #8DBBD2",
"< 	c #55819A",
"[ 	c #0E1F3B",
"} 	c #0C1C36",
"| 	c #05152E",
"1 	c #8ABAD0",
"2 	c #8CBBCF",
"3 	c #88B4CD",
"4 	c #89B6CD",
"5 	c #557E9A",
"6 	c #112240",
"7 	c #7DA1B9",
"8 	c #85B5C9",
"9 	c #8EBDCD",
"0 	c #091932",
"a 	c #071931",
"b 	c #8EBBD0",
"c 	c #8BB8CF",
"d 	c #8FB8CC",
"e 	c #91BED3",
"f 	c #88B8CF",
"g 	c #8BB8CD",
"h 	c #8DBBCB",
"i 	c #89B7CE",
"j 	c #608DAC",
"k 	c #020F22",
"l 	c #567683",
"m 	c #AA9B86",
"n 	c #AF9D87",
"o 	c #3C5969",
"p 	c #8FBED2",
"q 	c #8CBCD3",
"r 	c #8CBAD1",
"s 	c #89B7CF",
"t 	c #0E2243",
"u 	c #4F3D25",
"v 	c #CAB99F",
"w 	c #CDC1AB",
"x 	c #DECCB4",
"y 	c #A89984",
"z 	c #698E9E",
"A 	c #8EBCD3",
"B 	c #87B7CD",
"C 	c #11304C",
"D 	c #C8B79B",
"E 	c #CEC0A6",
"F 	c #C7B89B",
"G 	c #C9B99F",
"H 	c #6B746F",
"I 	c #8BBBD1",
"J 	c #88B6CD",
"K 	c #8EBBD2",
"L 	c #8AB9CD",
"M 	c #92C0D0",
"N 	c #08172C",
"O 	c #453424",
"P 	c #507E95",
"Q 	c #8BBBCF",
"R 	c #567385",
"S 	c #CEB9A4",
"T 	c #CABAA1",
"U 	c #697470",
"V 	c #89B9D0",
"W 	c #8EB8D1",
"X 	c #8BB9D0",
"Y 	c #8FBBD4",
"Z 	c #86B4CB",
"` 	c #8CB9D0",
" .	c #547D93",
"..	c #443424",
"+.	c #4D7181",
"@.	c #AF9F8F",
"#.	c #CAB9A5",
"$.	c #CABAA0",
"%.	c #C9B79F",
"&.	c #6F7875",
"*.	c #92BCD2",
"=.	c #87B5CC",
"-.	c #8AB9D3",
";.	c #8BB9D1",
">.	c #628AAD",
",.	c #57809C",
"'.	c #03122F",
").	c #BBAA98",
"!.	c #C9B7A1",
"~.	c #CEBEA7",
"{.	c #776757",
"].	c #CCBAA2",
"^.	c #CBBBA2",
"/.	c #767C7C",
"(.	c #5F88A8",
"_.	c #5A89A7",
":.	c #5B88A7",
"<.	c #061630",
"[.	c #CDD3D3",
"}.	c #EFF5F3",
"|.	c #E4F3F0",
"1.	c #716151",
"2.	c #CBBBA4",
"3.	c #757A76",
"4.	c #5B86A6",
"5.	c #5C89AA",
"6.	c #5D88A8",
"7.	c #5B87A4",
"8.	c #051934",
"9.	c #7A6D5C",
"0.	c #E6F5F0",
"a.	c #D8DEDA",
"b.	c #A08F7B",
"c.	c #CDB9A0",
"d.	c #604D3E",
"e.	c #4B3C29",
"f.	c #618AA8",
"g.	c #5C89A8",
"h.	c #5C87A7",
"i.	c #5D8AA9",
"j.	c #06162D",
"k.	c #C7B7A0",
"l.	c #6B5E4D",
"m.	c #CCBBA1",
"n.	c #CEBAA1",
"o.	c #C9B89E",
"p.	c #C7B59D",
"q.	c #6F889C",
"r.	c #5A87A6",
"s.	c #648CA6",
"t.	c #091126",
"u.	c #08142C",
"v.	c #493826",
"w.	c #726253",
"x.	c #CAB69D",
"y.	c #C8B89F",
"z.	c #CDB9A1",
"A.	c #CFBDA7",
"B.	c #463A2A",
"C.	c #5C85A3",
"D.	c #5984A4",
"E.	c #021732",
"F.	c #43321E",
"G.	c #C9B9A2",
"H.	c #CBB9A1",
"I.	c #CDBFA5",
"J.	c #CBBA9E",
"K.	c #AA9A83",
"L.	c #5B6463",
"M.	c #5684A5",
"N.	c #5E819D",
"O.	c #6789A4",
"P.	c #0B1C36",
"Q.	c #403521",
"R.	c #415E26",
"S.	c #485F29",
"T.	c #61503C",
"U.	c #5F523F",
"V.	c #CBB79E",
"W.	c #AE9E87",
"X.	c #3E2E1E",
"Y.	c #5A768E",
"Z.	c #27455F",
"`.	c #95AD6F",
" +	c #A79A89",
".+	c #C8B6A0",
"++	c #C4B29A",
"@+	c #796A55",
"#+	c #100F15",
"$+	c #49535D",
"%+	c #8E7F6C",
"&+	c #B19C87",
"*+	c #AF9F88",
"=+	c #6A5840",
"-+	c #625042",
";+	c #899088",
">+	c #ADB9AF",
",+	c #1D262D",
"'+	c #354751",
")+	c #8A9A99",
"!+	c #A9B4AE",
"~+	c #C4CBC4",
"{+	c #E6EFEC",
"]+	c #090F1B",
"^+	c #0C2B3D",
"/+	c #3C5D66",
"(+	c #859491",
"_+	c #F3FCF7",
":+	c #E3EBED",
"<+	c #BBC2BB",
"[+	c #0D1A2B",
"}+	c #1E485E",
"|+	c #ABB5B4",
"1+	c #7D8E88",
"2+	c #E1E9EC",
"3+	c #E5EAEE",
"4+	c #B3C5B9",
"5+	c #C1CCBE",
"6+	c #71AEC3",
"7+	c #A4B4AA",
"8+	c #AEBFB7",
"9+	c #E5EAED",
"0+	c #E4E9ED",
"a+	c #768280",
"b+	c #BBC7B9",
"c+	c #6CAFC2",
"d+	c #E0E8EA",
"e+	c #BBCECA",
"f+	c #E7EBEE",
"g+	c #E5E9EC",
"h+	c #C1CDC3",
"i+	c #BAC6BA",
"j+	c #86968C",
"k+	c #63AEC5",
"l+	c #ECF5F4",
"m+	c #E1E6EA",
"n+	c #E3E8EB",
"o+	c #C0CAC1",
"p+	c #BBCDBF",
"q+	c #0F1B33",
"r+	c #0A1728",
"s+	c #71B5CC",
"t+	c #DBE7E3",
"u+	c #030D19",
"v+	c #E8EEEE",
"w+	c #BECCBF",
"x+	c #0C1828",
"y+	c #68ABC5",
"z+	c #83928D",
"A+	c #E4E9EC",
"B+	c #E5E8ED",
"C+	c #D3DDDC",
"D+	c #BAC8BB",
"E+	c #112033",
"F+	c #BBC9BA",
"G+	c #111C38",
"H+	c #78B9CD",
"I+	c #D9E5E1",
"J+	c #AEBAB0",
"K+	c #CDD9D7",
"L+	c #E3E8EC",
"M+	c #0E1D32",
"N+	c #BDC9BD",
"O+	c #0A162C",
"P+	c #596C68",
"Q+	c #E6EBEE",
"R+	c #E0E5E9",
"S+	c #17212D",
"T+	c #E4EFE9",
"U+	c #E6EAED",
"V+	c #111B36",
"W+	c #BBC9BC",
"X+	c #0A172A",
"Y+	c #0F1C2D",
"Z+	c #E2ECEE",
"`+	c #E8ECEF",
" @	c #C2CEC4",
".@	c #BAC8C8",
"+@	c #E8F2F1",
"@@	c #E8E9EE",
"#@	c #131F37",
"$@	c #B8C6B9",
"%@	c #BECCBD",
"&@	c #CCD7CF",
"*@	c #A3B1B4",
"=@	c #DFE8E3",
"-@	c #E7E8ED",
";@	c #BAC6B8",
">@	c #BCC8BA",
",@	c #B9C7BA",
"'@	c #B9C4BC",
")@	c #E6E9EE",
"!@	c #B3BDBF",
"~@	c #B7C3B7",
"{@	c #E4E8EB",
"]@	c #091732",
"^@	c #03132C",
"/@	c #041330",
"(@	c #E7ECF0",
"_@	c #E9EAEF",
":@	c #C4CDCC",
"<@	c #576663",
"[@	c #E1E7E3",
"}@	c #E6E6EE",
"|@	c #706760",
"1@	c #A29282",
"2@	c #53412B",
"3@	c #C1B59D",
"4@	c #7CA1A9",
"5@	c #030F1D",
"6@	c #0B1014",
"7@	c #555847",
"8@	c #E5E8EF",
"9@	c #E4E7EC",
"0@	c #B9C5B9",
"a@	c #544C3F",
"b@	c #A99481",
"c@	c #3A2F1D",
"d@	c #4A3B26",
"e@	c #C6B597",
"f@	c #CDBEA1",
"g@	c #0C0D0F",
"h@	c #47493B",
"i@	c #E6EFEE",
"j@	c #E2E7EA",
"k@	c #0B1A31",
"l@	c #574B3D",
"m@	c #463A22",
"n@	c #CCBCA3",
"o@	c #827666",
"p@	c #C8B89E",
"q@	c #473C2A",
"r@	c #504323",
"s@	c #655734",
"t@	c #CBD5D4",
"u@	c #E7E8EC",
"v@	c #0D1931",
"w@	c #B09B86",
"x@	c #483727",
"y@	c #D3C3A9",
"z@	c #C9BA9D",
"A@	c #0C0C16",
"B@	c #736237",
"C@	c #616355",
"D@	c #E3E6EB",
"E@	c #131F39",
"F@	c #453923",
"G@	c #423522",
"H@	c #4F4021",
"I@	c #746338",
"J@	c #756438",
"K@	c #1B1B1D",
"L@	c #B0BCBA",
"M@	c #E6ECEA",
"N@	c #E8EBF0",
"O@	c #BEC8BD",
"P@	c #151B2B",
"Q@	c #6E6137",
"R@	c #726437",
"S@	c #6F6238",
"T@	c #2F2C27",
"U@	c #423218",
"V@	c #A9B5B3",
"W@	c #E3EDEC",
"X@	c #E7EAF1",
"Y@	c #E8E8F0",
"Z@	c #06152C",
"`@	c #0B0E15",
" #	c #746639",
".#	c #6D5E33",
"+#	c #3E3B32",
"@#	c #3A434C",
"##	c #44341A",
"$#	c #423117",
"%#	c #0B1A37",
"&#	c #C1D1C4",
"*#	c #EBF4F3",
"=#	c #E7ECEF",
"-#	c #0C182E",
";#	c #564D30",
">#	c #755F38",
",#	c #846F40",
"'#	c #14181B",
")#	c #403B28",
"!#	c #43331A",
"~#	c #47371D",
"{#	c #14233A",
"]#	c #0E192F",
"^#	c #020E28",
"/#	c #061333",
"(#	c #0D1321",
"_#	c #5E4F30",
":#	c #594D33",
"<#	c #453D2A",
"[#	c #000000",
"}#	c #4A4424",
"|#	c #514723",
"1#	c #514626",
"2#	c #000209",
"3#	c #5D502E",
"4#	c #645A37",
"5#	c #000100",
"6#	c #4B452F",
"7#	c #494426",
"8#	c #4A4326",
"9#	c #4D4423",
"0#	c #120F06",
"a#	c #5B5030",
"b#	c #534E2E",
"c#	c #675E37",
"d#	c #070B0A",
"e#	c #3D3626",
"f#	c #4C4624",
"g#	c #4D4425",
"h#	c #352911",
"i#	c #595031",
"j#	c #554E31",
"k#	c #403825",
"l#	c #4E4327",
"m#	c #474024",
"n#	c #DFCE9A",
"o#	c #383830",
"p#	c #3E3111",
"q#	c #54502D",
"r#	c #473C28",
"s#	c #0B0D0A",
"t#	c #32352E",
"u#	c #32332D",
"v#	c #020202",
"w#	c #070908",
"x#	c #010000",
"y#	c #3C3F38",
"z#	c #E4D6AA",
"A#	c #2F322B",
"B#	c #33322D",
"C#	c #242213",
"D#	c #32332E",
"E#	c #34352F",
"F#	c #30312B",
"G#	c #3A3D36",
"H#	c #333530",
"I#	c #2B2C26",
"J#	c #32352C",
"K#	c #080A05",
"L#	c #040605",
"M#	c #040203",
"N#	c #060606",
"O#	c #010101",
"                                                                                                          .                   + ",
"      .                                                                 .       .                                             + ",
"                                                                                                                              + ",
"                                                                                  .                   @                       + ",
"                                                        .                                                                     + ",
"                                                  .     #       $                                                     .   .   + ",
"                              .                         %     & *                                                             + ",
"                    @                                 = - ;   > ,                 @                                           + ",
"                                                      ' ) ! ~ { ]                               .                             + ",
"                                                      ^ / ( _ : <       [ }                     @   @                         + ",
"                                              @     | 1 2 3 { 4 5 6 7 8 9 0                                                   + ",
"                                                    a b c d e f g h i 2 j             .                       @               + ",
"                                                    k l m n o p q r s ^ t                                                     + ",
"                      .                             u v w x y z A B 1 C                                           @           + ",
"                                                    D E F v G H I J K L M N                                       .           + ",
"                                                  O P Q R S T U V W X Y Z ` X  .      @                                       + ",
"                                                  ..+.@.#.$.%.&.*.=.-.;.>.,.'.                                                + ",
"                                  @     .         ).!.~.{.].^./.(._.:.:.<.                                                    + ",
"                      .                           [.}.|.1.2.%.3.4.5.6.7.8.                                                    + ",
"                                                  9.0.a.b.c.T d.e.f.g.h.i.j.                                                  + ",
"      @                                         O T G k.l.m.n.o.p.q.:.r.s.t.u.                                                + ",
"                                                v.w.x.y.%.z.o.A.B.C.D.E.                                                      + ",
"                                                  F.G.H.I.J.^.K.L.M.N.O.P.                                                    + ",
"            .                                   . Q.R.S.T.U.V.W.X.Y.Z.                                                        + ",
"    .                                     .         `.o. +.+++@+#+$+  @                                             .         + ",
"                    @                                 %+&+*+=+-+;+>+,+                                                        + ",
"                                                            '+)+!+~+{+]+                                                  @   + ",
"                                                          ^+/+(+_+:+<+[+                                                      + ",
"                                                          }+|+1+2+3+4+5+                      @                       .       + ",
"                                                          6+7+8+9+0+a+b+u.                .       @                           + ",
"                                                      @   c+d+e+f+g+h+i+j+                                                    + ",
"                                                          k+l+m+n+o+p+i+q+r+        .   @                                     + ",
"      @         .                                         s+t+9+0+u+v+w+x+b+                                                  + ",
"                                                          y+z+A+B+C+d+D+E+F+G+                                            .   + ",
"            .                                             H+I+9+J+K+9+L+M+N+O+            @             .         @           + ",
"                                                          P+Q+R+S+T+B+U+V+W+X+                                      .         + ",
"              @                                         Y+Z+`+ @.@+@@@g+#@$@%@                                                + ",
"    @                                                   9+U+&@*@=@A+-@9+;@>@,@                                                + ",
"                                                      '@9+)@!@~@U+{@{@)@D+]@^@                                    .           + ",
"        .                                           /@(@_@:@<@[@}@g+B+f+b+|@1@                    .                           + ",
"                                                  2@3@4@5@6@7@8@g+9+A+9@0@a@b@c@                          .                   + ",
"                                    @           d@e@~.f@  g@h@i@j@0+{@B+>@k@l@m@                                      .       + ",
"                                                n@o@p@q@  r@s@t@)@u@)@B+U+v@w@                                                + ",
"                    @             @             x@y@z@  A@B@B@C@(@L+3+D@0+E@        @             .               @         . + ",
"                                                  F@G@  H@I@J@K@L@M@N@)@U+O@                                                  + ",
"                @                                     P@Q@R@S@T@U@V@W@X@Y@>@Z@                            .                   + ",
"                      .                               `@ #.#+#@###$#%#&#*#=#-#                                      @         + ",
"                                    @                 ;#>#,#'#  )#!#~#{#]#^#/#                  .         @                   + ",
"        @                                           (#_#:#<#    [#}#|#1#[#                                                    + ",
"            .                                       2#3#4#5#      6#7#8#9#0#                                                  + ",
"                .                                   a#b#c#d#      . e#f#g#h#                                                  + ",
"                                                    i#j#k#            l#m#n#o#                                                + ",
"                                                    p#q#r#              s#t#u#v#                                              + ",
"              .                         .       w#x#y#z#                A#B#C#      .                                         + ",
"                                              A#D#E#F#G#              H#I#J#x#                                                + ",
"                    @                         K#L#M#N#O#                                          .           @               + ",
"                                      .                                                                                       + ",
"                                                                                        @                                     + ",
"                                  @                                                                                           + ",
"                                                                                                                              + ",
"                                                                  .                                                           + ",
"                                                          @                                                                   + ",
"                                                                                                              @               + ",
"+ + + + + + + + + + + + + + + + + + + + + + + + + + + + + + + + + + + + + + + + + + + + + + + + + + + + + + + + + + + + + + + + "};
