/* XPM */
static char * rick_up_xpm[] = {
"64 64 477 2",
"  	c #708090",
". 	c #8090A0",
"+ 	c #506070",
"@ 	c #607080",
"# 	c #050E2B",
"$ 	c #728393",
"% 	c #668B9E",
"& 	c #AACCD8",
"* 	c #000215",
"= 	c #03030B",
"- 	c #92B8C5",
"; 	c #000211",
"> 	c #000619",
", 	c #8CB2BF",
"' 	c #000817",
") 	c #000004",
"! 	c #80AEBB",
"~ 	c #01061C",
"{ 	c #050C1F",
"] 	c #81ADB6",
"^ 	c #8CB6C2",
"/ 	c #020518",
"( 	c #88A9B2",
"_ 	c #80ACB7",
": 	c #A7CDD6",
"< 	c #080D23",
"[ 	c #030009",
"} 	c #92BECB",
"| 	c #5B7F97",
"1 	c #040716",
"2 	c #04091C",
"3 	c #84B1B7",
"4 	c #84AEBA",
"5 	c #638699",
"6 	c #85ADB7",
"7 	c #87ADBA",
"8 	c #B2D4DE",
"9 	c #00030F",
"0 	c #628598",
"a 	c #4B7689",
"b 	c #597080",
"c 	c #88AFBE",
"d 	c #88B2BE",
"e 	c #7DA9B6",
"f 	c #537382",
"g 	c #8BA9B3",
"h 	c #8AA2A6",
"i 	c #92B0BA",
"j 	c #82AAB6",
"k 	c #7EA9B2",
"l 	c #89AFBA",
"m 	c #8DB3C0",
"n 	c #94BFD0",
"o 	c #050720",
"p 	c #010005",
"q 	c #8BAFBF",
"r 	c #84AEBC",
"s 	c #86AEB8",
"t 	c #677A78",
"u 	c #AFA282",
"v 	c #BBAB92",
"w 	c #7C765C",
"x 	c #85ABB8",
"y 	c #8DB2BB",
"z 	c #81ACBD",
"A 	c #8BB1BE",
"B 	c #718CA1",
"C 	c #011121",
"D 	c #88B2C0",
"E 	c #8DAEB3",
"F 	c #C1B094",
"G 	c #BFB093",
"H 	c #CAC09D",
"I 	c #817A5D",
"J 	c #688FA0",
"K 	c #86B0BC",
"L 	c #86AAB6",
"M 	c #588292",
"N 	c #6E6C79",
"O 	c #0C0B11",
"P 	c #010101",
"Q 	c #718699",
"R 	c #8CB0BE",
"S 	c #81ADBA",
"T 	c #8DB1BD",
"U 	c #635435",
"V 	c #C4B598",
"W 	c #78694A",
"X 	c #90AEAE",
"Y 	c #8CB0BC",
"Z 	c #89B1BD",
"` 	c #88B3BA",
" .	c #8EB3C3",
"..	c #94B1C1",
"+.	c #050811",
"@.	c #080B12",
"#.	c #8AB6C1",
"$.	c #87B2BB",
"%.	c #86ADBC",
"&.	c #8FB4BD",
"*.	c #84ABBA",
"=.	c #63858F",
"-.	c #92ACAD",
";.	c #5C7A82",
">.	c #89B1BB",
",.	c #83B0B5",
"'.	c #88ACB8",
").	c #83AFBA",
"!.	c #8BB0C0",
"~.	c #517889",
"{.	c #090B1A",
"].	c #5B7F95",
"^.	c #95B5C0",
"/.	c #8BB3BD",
"(.	c #8CB2BB",
"_.	c #89AEBE",
":.	c #84AEBE",
"<.	c #88B0BC",
"[.	c #83ABB7",
"}.	c #8DB5BD",
"|.	c #87B1BD",
"1.	c #5C7B8D",
"2.	c #58798A",
"3.	c #0E1130",
"4.	c #5E8195",
"5.	c #87ACBC",
"6.	c #89ADBD",
"7.	c #8BACBD",
"8.	c #89AFBC",
"9.	c #85ABB6",
"0.	c #91B5C1",
"a.	c #5B7E91",
"b.	c #372B11",
"c.	c #0B0F2A",
"d.	c #82B1BB",
"e.	c #8CB1B9",
"f.	c #8AAFBF",
"g.	c #88ADBD",
"h.	c #88AEBB",
"i.	c #8AACB5",
"j.	c #82ACB8",
"k.	c #0E1420",
"l.	c #030722",
"m.	c #8DB3BC",
"n.	c #94B9C1",
"o.	c #476B7B",
"p.	c #87AFBB",
"q.	c #89B1B9",
"r.	c #85B0B7",
"s.	c #89B4BA",
"t.	c #8DB3BE",
"u.	c #87ADB8",
"v.	c #8AB7BD",
"w.	c #92B7BD",
"x.	c #7AA9B3",
"y.	c #03081C",
"z.	c #000819",
"A.	c #678C9E",
"B.	c #638797",
"C.	c #638297",
"D.	c #597D8B",
"E.	c #608190",
"F.	c #8FAFBA",
"G.	c #4F737F",
"H.	c #5E8292",
"I.	c #678899",
"J.	c #698A99",
"K.	c #60808F",
"L.	c #07081A",
"M.	c #0D1633",
"N.	c #0A142D",
"O.	c #678492",
"P.	c #648493",
"Q.	c #648594",
"R.	c #688A94",
"S.	c #5F808F",
"T.	c #628392",
"U.	c #74919F",
"V.	c #03081B",
"W.	c #5F8295",
"X.	c #628799",
"Y.	c #5E8194",
"Z.	c #5E8290",
"`.	c #648598",
" +	c #66869B",
".+	c #628696",
"++	c #628394",
"@+	c #010F1C",
"#+	c #6D98A8",
"$+	c #385165",
"%+	c #455867",
"&+	c #5E7E8D",
"*+	c #001024",
"=+	c #668A98",
"-+	c #A3A590",
";+	c #010818",
">+	c #081526",
",+	c #070D1B",
"'+	c #010207",
")+	c #4E4026",
"!+	c #939182",
"~+	c #61666A",
"{+	c #49412A",
"]+	c #050C12",
"^+	c #0C0F1E",
"/+	c #000E17",
"(+	c #759B9E",
"_+	c #81A3A5",
":+	c #729597",
"<+	c #303F3C",
"[+	c #010109",
"}+	c #A8B4A0",
"|+	c #E1E3E2",
"1+	c #DCE0E1",
"2+	c #DBDDDC",
"3+	c #DEE0DF",
"4+	c #DBDCDE",
"5+	c #E3E5E4",
"6+	c #D2DED4",
"7+	c #52615A",
"8+	c #C4CFC1",
"9+	c #DBDDDA",
"0+	c #DFE1E0",
"a+	c #E0DFE4",
"b+	c #E0E0E2",
"c+	c #E1E2E6",
"d+	c #DDDFDE",
"e+	c #DFE0E2",
"f+	c #DCE3DB",
"g+	c #E0E7E0",
"h+	c #E1E0E5",
"i+	c #E2E0E5",
"j+	c #DEDDE2",
"k+	c #E1E1E3",
"l+	c #DFDEE3",
"m+	c #E1E1E1",
"n+	c #E3E3E5",
"o+	c #DDE1E0",
"p+	c #4A5D57",
"q+	c #030511",
"r+	c #E3E7E6",
"s+	c #DFE1DE",
"t+	c #DFDFE1",
"u+	c #DEDDE3",
"v+	c #DEE3DF",
"w+	c #B4C1AF",
"x+	c #DDDDDB",
"y+	c #CBD9CA",
"z+	c #000116",
"A+	c #D7DBDC",
"B+	c #B8C5B3",
"C+	c #E9E9EB",
"D+	c #DCDEDD",
"E+	c #E1DFE4",
"F+	c #E0DEE3",
"G+	c #DFDEE4",
"H+	c #E0E0E0",
"I+	c #6F7F74",
"J+	c #D8DDD9",
"K+	c #DEE2E1",
"L+	c #2D3D3D",
"M+	c #DEE2E3",
"N+	c #D4D8DB",
"O+	c #E0DDE4",
"P+	c #E1DFE2",
"Q+	c #BAC1AF",
"R+	c #E3E5E2",
"S+	c #DEE0DD",
"T+	c #475E56",
"U+	c #D3D9D5",
"V+	c #DFE3E2",
"W+	c #3C4B50",
"X+	c #DEDEDE",
"Y+	c #E4E6E3",
"Z+	c #E0DFE5",
"`+	c #DFE0E4",
" @	c #DFDDE2",
".@	c #C4CEB5",
"+@	c #BEC9B8",
"@@	c #DADEDD",
"#@	c #4E635A",
"$@	c #010221",
"%@	c #DCDDDF",
"&@	c #EBEBE9",
"*@	c #05102C",
"=@	c #E3E3E1",
"-@	c #DCE1DD",
";@	c #D9DDDC",
">@	c #D4DBC9",
",@	c #889784",
"'@	c #DCE5E0",
")@	c #E8ECEB",
"!@	c #D9DADC",
"~@	c #C5CBBD",
"{@	c #00031C",
"]@	c #D9DBDA",
"^@	c #D9E0D9",
"/@	c #D3DCC7",
"(@	c #00021D",
"_@	c #DADCD9",
":@	c #E5E7E4",
"<@	c #364947",
"[@	c #D7D9D6",
"}@	c #B8C3B2",
"|@	c #000724",
"1@	c #DBE4E3",
"2@	c #D4DCC5",
"3@	c #000424",
"4@	c #D3D8DB",
"5@	c #DADCD7",
"6@	c #334946",
"7@	c #D9DEDA",
"8@	c #010520",
"9@	c #00031E",
"0@	c #DDE1E4",
"a@	c #DDE3E3",
"b@	c #DADFDB",
"c@	c #CDD6C3",
"d@	c #FFFFFD",
"e@	c #A4B19D",
"f@	c #E1E3DE",
"g@	c #C0CDBC",
"h@	c #01000E",
"i@	c #D9DBD6",
"j@	c #010312",
"k@	c #010624",
"l@	c #DBDFE2",
"m@	c #E1E2E4",
"n@	c #E2E1E6",
"o@	c #DBE0DA",
"p@	c #CFDAC9",
"q@	c #F9FAF5",
"r@	c #B5C3AC",
"s@	c #E0DFDD",
"t@	c #131C39",
"u@	c #CAD6C2",
"v@	c #000316",
"w@	c #00020F",
"x@	c #DFDCE3",
"y@	c #E3DEE4",
"z@	c #DFE4E0",
"A@	c #CBD6C6",
"B@	c #F6F7F1",
"C@	c #08122B",
"D@	c #B8CABA",
"E@	c #05193A",
"F@	c #081633",
"G@	c #001336",
"H@	c #A7B09F",
"I@	c #DEDFE1",
"J@	c #E2DDE4",
"K@	c #D7DCD5",
"L@	c #112540",
"M@	c #B8B19E",
"N@	c #3C3519",
"O@	c #413319",
"P@	c #B5B093",
"Q@	c #7D7A67",
"R@	c #B4BDAC",
"S@	c #D8E0E2",
"T@	c #D7D9D4",
"U@	c #E2E0E3",
"V@	c #0F2233",
"W@	c #7F7961",
"X@	c #747357",
"Y@	c #AD9F84",
"Z@	c #413A1E",
"`@	c #B1A889",
" #	c #BBAF97",
".#	c #696446",
"+#	c #39331D",
"@#	c #B3BCAB",
"##	c #DADEDF",
"$#	c #E0E1E5",
"%#	c #DEDBE2",
"&#	c #E3E3E3",
"*#	c #031627",
"=#	c #6D6852",
"-#	c #696647",
";#	c #3F3F25",
">#	c #C0B297",
",#	c #86806A",
"'#	c #3D3619",
")#	c #0B1821",
"!#	c #BAC5B5",
"~#	c #D6DAD9",
"{#	c #DBDEE3",
"]#	c #E2E3E5",
"^#	c #E4E4E4",
"/#	c #D2D8D4",
"(#	c #252003",
"_#	c #C6B79A",
":#	c #2F280C",
"<#	c #030B18",
"[#	c #DDE2DE",
"}#	c #DEDDDB",
"|#	c #E2E2E4",
"1#	c #D5DCCC",
"2#	c #000717",
"3#	c #D8DAD7",
"4#	c #D4DDC8",
"5#	c #030B1E",
"6#	c #DBE0E3",
"7#	c #D5DBDB",
"8#	c #DADEE1",
"9#	c #E0E1E3",
"0#	c #DFDFDF",
"a#	c #DDDDDF",
"b#	c #D8E1D0",
"c#	c #020A1D",
"d#	c #C3D1C2",
"e#	c #E3E9E7",
"f#	c #DBDBD9",
"g#	c #E2E2E0",
"h#	c #D8DCDB",
"i#	c #DEDEDC",
"j#	c #B3C6B0",
"k#	c #142038",
"l#	c #0D1E38",
"m#	c #102039",
"n#	c #030E20",
"o#	c #03112B",
"p#	c #15233D",
"q#	c #10213B",
"r#	c #0A1728",
"s#	c #493C1A",
"t#	c #56502E",
"u#	c #4F4931",
"v#	c #13171A",
"w#	c #514221",
"x#	c #4A3F21",
"y#	c #040A06",
"z#	c #030E06",
"A#	c #595436",
"B#	c #646045",
"C#	c #111715",
"D#	c #544E2E",
"E#	c #5D5832",
"F#	c #010504",
"G#	c #000403",
"H#	c #595530",
"I#	c #605C37",
"J#	c #202928",
"K#	c #5A5535",
"L#	c #5C5632",
"M#	c #463B1F",
"N#	c #E0CAA1",
"O#	c #D8DBD4",
"P#	c #34311E",
"Q#	c #5D552E",
"R#	c #595633",
"S#	c #030303",
"T#	c #252F27",
"U#	c #020701",
"V#	c #433E2A",
"W#	c #565332",
"X#	c #645F37",
"Y#	c #364238",
"Z#	c #192019",
"`#	c #000000",
" $	c #423C2C",
".$	c #5E5931",
"+$	c #524D2D",
"@$	c #040507",
"#$	c #121911",
"$$	c #161B14",
"%$	c #0C0E09",
"&$	c #11120D",
"*$	c #EBD6A1",
"=$	c #1B2622",
"-$	c #050704",
";$	c #151C15",
">$	c #222721",
",$	c #060805",
"'$	c #29392F",
")$	c #334037",
"!$	c #313E34",
"                                                                                                          .                   + ",
"      .                                                                 .       .                                             + ",
"                                                                                                                              + ",
"                                                                                  .                   @                       + ",
"                                                        .                                                                     + ",
"                                                  .                   #                                               .   .   + ",
"                              .                             $         %                                                       + ",
"                    @                                       & *     = - ;         @                                           + ",
"                                                            > , '   ) ! ~                       .                             + ",
"                                                            { ] ^ / ( _ :     <                 @   @                         + ",
"                                              @   [ } | 1 @ 2 3 4 5 6 7 8 9 0 a                                               + ",
"                                                    b c d e f g h i j k l m n o       .                       @               + ",
"                                                    p q r s t u v w x y z A B                                                 + ",
"                      .                               C D E F G H I J K L M N                                     @           + ",
"                                                O P Q R S T U V W X Y Z `  ...+.@.                                .           + ",
"                                                * #.$.%.&.*.=.-.;.>.>.,.'.).!.~.      @                                       + ",
"                                                  {.].^./.(._.:.<.c [.}.|.1.2.                                                + ",
"                                  @     .           3.4.Y l 5.6.7.8.!.9.0.a.b.                                                + ",
"                      .                             c.d.e.<.f./.c g.h.>.i.j.k.                                                + ",
"                                                  l.m.n.o.p.q.r.s.f.t.u.v.w.x.y.                                              + ",
"      @                                           z.A.B.C.D.E.F.G.H.I.J.K.L.M.                                                + ",
"                                                      N.K.O.P.Q.J.R.S.T.U.                                                    + ",
"                                                    V.B.W.X.S.Y.Z.`. +.+++@+                                                  + ",
"            .                                   .         #+$+%+&+*+=+-+;+>+                                                  + ",
"    .                                     .             ,+'+)+!+~+{+]+@                                             .         + ",
"                    @                                     ^+/+(+_+:+<+                                                        + ",
"                                                      [+}+|+1+2+3+4+5+6+7+                                                @   + ",
"                                                    * 8+9+0+a+a+b+c+0+d+e+f+                                                  + ",
"                                                    g+d+h+i+e+j+k+a+l+m+n+o+p+                @                       .       + ",
"                                                  q+r+s+t+b+h+a+u+l+b+v+w+x+y+            .       @                           + ",
"                                                  z+A+B+C+D+a+E+F+G+a+H+I+d+                                                  + ",
"                                                  J+K+L+M+N+O+a+E+P+a+D+Q+R+S+T+    .   @                                     + ",
"      @         .                                 U+V+W+X+Y+j+Z+`+l+ @|+.@+@@@#@                                              + ",
"                                                $@%@&@*@=@-@F+a+u+O+l+;@>@,@'@)@                                          .   + ",
"            .                                   w+!@~@{@x+]@E+l+Z+Z+`+^@/@(@_@:@<@        @             .         @           + ",
"                                                [@v+}@|@]@1@G+u+O+a+a+J+2@3@4@5@6@                                  .         + ",
"              @                                 7@H+8@9@0@a@E+E+F+a+h+b@c@d@e@f@g@                                            + ",
"    @                                         h@2+i@j@k@l@J+m@h+n@a+l+o@p@q@r@s@                                              + ",
"                                              t@^@u@v@w@x@d+a+l+G+y@E+z@A@B@C@D@E@                                .           + ",
"        .                                       F@G@  H@m+b+I@E+J@E+h+K@b+L@  E@M@N@              .                           + ",
"                                              O@P@Q@  R@l+S@a+E+E+a+i+T@U@V@W@X@Y@Z@                      .                   + ",
"                                    @         `@ #.#+#@###`+$#a+%#h+l+9+&#*#  =#-#;#                                  .       + ",
"                                              >#,#'#)#!#~#{#$#a+`+F+h+]#^#/#  (#                                              + ",
"                    @             @             _#:#<#[#}#R+c+E+u+a+|#a@b+1#        @             .               @         . + ",
"                                                    2#3#d+3+m@1+E+a+a+_@m+4#                                                  + ",
"                @                                   5#7@6#7#8#b+c+9#E+0#a#b#                              .                   + ",
"                      .                             c#d#e#f#^#g#M+h#i#0+^#j#                                        @         + ",
"                                    @                   k#l#m#n#o#p#m#q#r#                      .         @                   + ",
"        @                                               s#t#u#    v#w#x#y#                                                    + ",
"            .                                           z#A#B#    C#D#E#F#.                                                   + ",
"                .                                       G#H#I#    J#K#L#                                                      + ",
"                                                          M#N#O#  P#Q#R#                                                      + ",
"                                                          S#T#U#  V#W#X#                                                      + ",
"              .                         .                 Y#Z#`#   $.$+$            .                                         + ",
"                                                        @$#$$$%$  &$*$=$                                                      + ",
"                    @                                   -$;$>$    ,$'$)$!$                        .           @               + ",
"                                      .                                                                                       + ",
"                                                                                        @                                     + ",
"                                  @                                                                                           + ",
"                                                                                                                              + ",
"                                                                  .                                                           + ",
"                                                          @                                                                   + ",
"                                                                                                              @               + ",
"+ + + + + + + + + + + + + + + + + + + + + + + + + + + + + + + + + + + + + + + + + + + + + + + + + + + + + + + + + + + + + + + + "};
