/* XPM */
static char * wall_xpm[] = {
"64 64 5 1",
" 	c #8CA0B4",
".	c #5A6978",
"+	c #323C46",
"@	c #465564",
"#	c #B4C8DC",
"                                                                ",
" .............................................................++",
" .@@@@@@@@@@@@@@@@@@@@@@@@@@@@ +++@@@@@@@@@@@@@@@@@@@@@@@@@@@@++",
" .@........................... +++...........................@++",
" .@........................... +++...........................@++",
" .@........................... +++...........................@++",
" .@........................... +++...........................@++",
" .@........................... +++...........................@++",
" .@........................... +++...........................@++",
" .@...........@............... +++...........................@++",
" .@........................... +++...........................@++",
" .@........................... +++...........................@++",
" .@........................... +++...........................@++",
" .@..........++++............. +++............++++...........@++",
" .@..........+ @@............. +++............+ @@...........@++",
" .@..........+@#@............. +++............+@#@...........@++",
" .@..........+@@@...@......... +++............+@@@...........@++",
" .@........................... +++..@........................@++",
" .@........................... +++........@..................@++",
" .@........................... +++...........................@++",
" .@........................... +++...........................@++",
" .@........................... +++...........................@++",
" .@........................... +++...........................@++",
" .@........................... +++...........................@++",
" .@........................... +++....................@......@++",
" .@..............@............ +++...........................@++",
" .@........................... +++...........................@++",
" .@........................... +++....@......................@++",
" .@........................... +++...........................@++",
" .@........................... +++...........................@++",
" .                             +++                            ++",
" .++++++++++++++++++++++++++++ +++++++++++++++++++++++++++++++++",
" .++++++++++++++++++++++++++++ +++++++++++++++++++++++++++++++++",
" .++++++++++++++++++++++++++++ +++++++++++++++++++++++++++++++++",
" .@.............@............. +++...........................@++",
" .@...................@....... +++...........................@++",
" .@........................... +++...........................@++",
" .@........................... +++...........................@++",
" .@.............@............. +++...........................@++",
" .@........................... +++...........................@++",
" .@........................... +++...........................@++",
" .@........................... +++...........................@++",
" .@........................... +++...........................@++",
" .@........................... +++...........................@++",
" .@........................... +++...........................@++",
" .@........................... +++...........................@++",
" .@....@.....++++............. +++............++++...........@++",
" .@..........+ @@............. +++............+ @@...........@++",
" .@..........+@#@............. +++............+@#@...........@++",
" .@..........+@@@............. +++............+@@@...........@++",
" .@........................... +++...........................@++",
" .@........................... +++...........................@++",
" .@........................... +++...........................@++",
" .@........................... +++...........................@++",
" .@........................... +++..............@............@++",
" .@........................... +++...........................@++",
" .@........................... +++...........................@++",
" .@........................... +++...........................@++",
" .@........................... +++.......@...................@++",
" .@........................... +++...........................@++",
" .@........................... +++...........................@++",
" .@@@@@@@@@@@@@@@@@@@@@@@@@@@@ +++@@@@@@@@@@@@@@@@@@@@@@@@@@@@++",
" +++++++++++++++++++++++++++++++++++++++++++++++++++++++++++++++",
" +++++++++++++++++++++++++++++++++++++++++++++++++++++++++++++++"};
